<?xml version="1.0" encoding="UTF-8" ?>
<!DOCTYPE svg PUBLIC "-//W3C//DTD SVG 1.1//EN" "http://www.w3.org/Graphics/SVG/1.1/DTD/svg11.dtd">
<svg width="186pt" height="183pt" viewBox="0 0 186 183" version="1.1" xmlns="http://www.w3.org/2000/svg">
<g id="#ffffffff">
<path fill="#ffffff" opacity="1.00" d=" M 81.61 1.79 C 101.75 -0.70 122.73 3.49 140.19 13.89 C 159.65 25.30 174.79 44.10 181.18 65.79 C 187.61 86.91 185.78 110.43 176.13 130.29 C 166.86 149.61 150.44 165.32 130.87 173.98 C 112.51 182.21 91.44 184.05 71.87 179.55 C 48.77 174.32 27.98 159.70 15.23 139.75 C 4.83 123.64 -0.14 104.09 1.34 84.97 C 2.91 61.86 14.03 39.61 31.48 24.40 C 45.34 11.93 63.13 4.01 81.61 1.79 M 84.31 11.53 C 73.49 12.73 62.85 15.93 53.30 21.19 C 34.11 31.46 19.46 49.86 13.81 70.88 C 9.39 87.12 10.36 104.75 16.50 120.41 C 22.80 136.32 34.23 150.16 48.75 159.22 C 74.85 176.02 110.43 176.15 136.69 159.62 C 153.22 149.50 165.87 133.22 171.55 114.68 C 177.35 95.57 175.76 74.21 166.71 56.36 C 160.45 43.71 150.80 32.74 139.02 24.95 C 123.09 14.29 103.36 9.51 84.31 11.53 Z" />
</g>
<g id="#ccdce4ff">
<path fill="#ccdce4" opacity="1.00" d=" M 84.31 11.53 C 103.36 9.51 123.09 14.29 139.02 24.95 C 150.80 32.74 160.45 43.71 166.71 56.36 C 175.76 74.21 177.35 95.57 171.55 114.68 C 165.87 133.22 153.22 149.50 136.69 159.62 C 110.43 176.15 74.85 176.02 48.75 159.22 C 34.23 150.16 22.80 136.32 16.50 120.41 C 10.36 104.75 9.39 87.12 13.81 70.88 C 19.46 49.86 34.11 31.46 53.30 21.19 C 62.85 15.93 73.49 12.73 84.31 11.53 M 37.15 44.64 C 41.05 54.92 43.83 65.59 47.45 75.98 C 50.71 86.10 53.75 96.30 57.25 106.34 C 60.99 117.73 64.18 129.33 68.45 140.53 C 70.62 140.44 72.79 140.39 74.96 140.36 C 78.19 140.40 81.42 140.39 84.66 140.38 C 88.30 140.40 91.95 140.41 95.60 140.34 C 92.22 131.60 90.14 122.34 86.33 113.80 L 86.58 113.22 C 84.61 108.17 83.57 102.74 81.09 97.91 C 81.46 96.85 80.77 95.80 80.52 94.80 C 76.60 83.78 73.53 72.47 69.29 61.57 L 69.45 61.09 C 67.50 55.66 65.87 50.13 64.05 44.67 C 61.20 44.63 58.35 44.63 55.49 44.61 C 49.38 44.66 43.26 44.61 37.15 44.64 M 85.89 44.70 C 88.45 53.99 92.12 62.94 94.90 72.17 L 95.27 72.26 C 100.31 88.30 105.81 104.22 111.48 120.05 C 113.74 126.84 115.71 133.83 118.64 140.37 C 124.52 140.35 130.40 140.53 136.27 140.32 C 138.87 140.56 141.49 140.44 144.10 140.32 C 146.24 141.09 145.44 138.88 145.05 138.01 C 140.89 127.28 137.51 116.27 133.32 105.55 L 133.59 105.25 C 130.10 96.76 127.46 87.94 124.25 79.34 L 124.40 79.11 C 120.12 67.70 116.26 56.13 112.20 44.64 C 110.07 44.64 107.94 44.66 105.82 44.72 C 99.18 44.51 92.53 44.73 85.89 44.70 Z" />
</g>
<g id="#01bef1ff">
<path fill="#01bef1" opacity="1.00" d=" M 37.15 44.64 C 43.26 44.61 49.38 44.66 55.49 44.61 C 56.01 46.30 56.70 48.09 55.99 49.85 C 54.55 54.65 53.61 59.57 52.52 64.45 C 51.62 68.61 49.19 72.16 47.45 75.98 C 43.83 65.59 41.05 54.92 37.15 44.64 Z" />
</g>
<g id="#02abe4ff">
<path fill="#02abe4" opacity="1.00" d=" M 55.49 44.61 C 58.35 44.63 61.20 44.63 64.05 44.67 C 65.87 50.13 67.50 55.66 69.45 61.09 L 69.29 61.57 C 67.22 65.55 70.38 69.71 69.51 73.84 C 68.54 79.45 66.11 84.70 65.23 90.33 C 64.28 96.45 61.80 102.22 61.12 108.39 C 60.27 106.61 59.41 104.83 58.53 103.07 C 58.09 104.15 57.66 105.24 57.25 106.34 C 53.75 96.30 50.71 86.10 47.45 75.98 C 49.19 72.16 51.62 68.61 52.52 64.45 C 53.61 59.57 54.55 54.65 55.99 49.85 C 56.70 48.09 56.01 46.30 55.49 44.61 Z" />
</g>
<g id="#0564b5ff">
<path fill="#0564b5" opacity="1.00" d=" M 85.89 44.70 C 92.53 44.73 99.18 44.51 105.82 44.72 C 107.27 45.53 108.68 46.41 110.09 47.28 C 108.42 52.62 107.52 58.12 106.69 63.64 C 104.43 69.62 103.66 75.95 102.43 82.17 C 99.30 80.01 98.86 75.96 97.25 72.78 C 96.75 72.65 95.76 72.39 95.27 72.26 L 94.90 72.17 C 92.12 62.94 88.45 53.99 85.89 44.70 Z" />
</g>
<g id="#064ba5ff">
<path fill="#064ba5" opacity="1.00" d=" M 105.82 44.72 C 107.94 44.66 110.07 44.64 112.20 44.64 C 116.26 56.13 120.12 67.70 124.40 79.11 L 124.25 79.34 C 123.81 80.01 122.94 81.35 122.50 82.01 C 123.72 86.22 125.59 90.67 124.05 95.06 C 121.05 105.02 120.08 115.53 116.47 125.30 C 115.16 122.43 113.86 119.54 112.35 116.76 C 112.13 117.58 111.69 119.23 111.48 120.05 C 105.81 104.22 100.31 88.30 95.27 72.26 C 95.76 72.39 96.75 72.65 97.25 72.78 C 98.86 75.96 99.30 80.01 102.43 82.17 C 103.66 75.95 104.43 69.62 106.69 63.64 C 107.52 58.12 108.42 52.62 110.09 47.28 C 108.68 46.41 107.27 45.53 105.82 44.72 Z" />
</g>
<g id="#0393d4ff">
<path fill="#0393d4" opacity="1.00" d=" M 69.51 73.84 C 70.38 69.71 67.22 65.55 69.29 61.57 C 73.53 72.47 76.60 83.78 80.52 94.80 C 80.77 95.80 81.46 96.85 81.09 97.91 C 78.72 102.07 82.43 106.28 81.42 110.58 C 80.84 113.44 79.78 116.18 78.96 118.99 C 76.96 125.52 75.96 132.33 73.60 138.76 C 73.94 139.16 74.62 139.96 74.96 140.36 C 72.79 140.39 70.62 140.44 68.45 140.53 C 64.18 129.33 60.99 117.73 57.25 106.34 C 57.66 105.24 58.09 104.15 58.53 103.07 C 59.41 104.83 60.27 106.61 61.12 108.39 C 61.80 102.22 64.28 96.45 65.23 90.33 C 66.11 84.70 68.54 79.45 69.51 73.84 Z" />
</g>
<g id="#073294ff">
<path fill="#073294" opacity="1.00" d=" M 122.50 82.01 C 122.94 81.35 123.81 80.01 124.25 79.34 C 127.46 87.94 130.10 96.76 133.59 105.25 L 133.32 105.55 C 132.94 105.97 132.18 106.82 131.79 107.25 C 132.70 112.32 134.63 117.12 135.83 122.11 C 136.56 124.98 135.13 127.76 134.80 130.58 C 134.45 133.44 133.93 136.30 132.72 138.95 C 133.90 139.41 135.08 139.89 136.27 140.32 C 130.40 140.53 124.52 140.35 118.64 140.37 C 115.71 133.83 113.74 126.84 111.48 120.05 C 111.69 119.23 112.13 117.58 112.35 116.76 C 113.86 119.54 115.16 122.43 116.47 125.30 C 120.08 115.53 121.05 105.02 124.05 95.06 C 125.59 90.67 123.72 86.22 122.50 82.01 Z" />
</g>
<g id="#0481c8ff">
<path fill="#0481c8" opacity="1.00" d=" M 81.42 110.58 C 82.43 106.28 78.72 102.07 81.09 97.91 C 83.57 102.74 84.61 108.17 86.58 113.22 L 86.33 113.80 C 83.64 118.87 89.02 124.38 86.60 129.60 C 85.44 133.08 85.07 136.75 84.66 140.38 C 81.42 140.39 78.19 140.40 74.96 140.36 C 74.62 139.96 73.94 139.16 73.60 138.76 C 75.96 132.33 76.96 125.52 78.96 118.99 C 79.78 116.18 80.84 113.44 81.42 110.58 Z" />
</g>
<g id="#082088ff">
<path fill="#082088" opacity="1.00" d=" M 131.79 107.25 C 132.18 106.82 132.94 105.97 133.32 105.55 C 137.51 116.27 140.89 127.28 145.05 138.01 C 145.44 138.88 146.24 141.09 144.10 140.32 C 141.49 140.44 138.87 140.56 136.27 140.32 C 135.08 139.89 133.90 139.41 132.72 138.95 C 133.93 136.30 134.45 133.44 134.80 130.58 C 135.13 127.76 136.56 124.98 135.83 122.11 C 134.63 117.12 132.70 112.32 131.79 107.25 Z" />
</g>
<g id="#0273c1ff">
<path fill="#0273c1" opacity="1.00" d=" M 86.60 129.60 C 89.02 124.38 83.64 118.87 86.33 113.80 C 90.14 122.34 92.22 131.60 95.60 140.34 C 91.95 140.41 88.30 140.40 84.66 140.38 C 85.07 136.75 85.44 133.08 86.60 129.60 Z" />
</g>
</svg>
