<?xml version="1.0" encoding="UTF-8" ?>
<!DOCTYPE svg PUBLIC "-//W3C//DTD SVG 1.1//EN" "http://www.w3.org/Graphics/SVG/1.1/DTD/svg11.dtd">
<svg width="757pt" height="421pt" viewBox="0 0 757 421" version="1.1" xmlns="http://www.w3.org/2000/svg">
<g id="#2c323c7b">
<path fill="#2c323c" opacity="0.48" d=" M 88.75 0.00 L 89.65 0.00 C 91.51 1.59 93.46 3.08 95.17 4.83 C 92.82 3.92 91.23 4.15 91.87 7.06 C 90.60 4.82 89.72 2.38 88.75 0.00 Z" />
</g>
<g id="#2d323b78">
<path fill="#2d323b" opacity="0.47" d=" M 637.92 4.63 C 639.31 2.99 641.07 1.75 643.07 0.97 C 642.47 3.45 641.75 5.98 640.25 8.09 C 640.06 6.48 640.01 4.61 637.92 4.63 Z" />
</g>
<g id="#384b6aef">
<path fill="#384b6a" opacity="0.94" d=" M 91.87 7.06 C 91.23 4.15 92.82 3.92 95.17 4.83 C 97.75 6.83 100.40 8.74 102.86 10.89 C 101.01 12.61 99.20 14.36 97.46 16.19 C 96.25 13.61 94.94 11.07 93.09 8.89 C 92.79 8.43 92.17 7.52 91.87 7.06 Z" />
</g>
<g id="#3e5376fb">
<path fill="#3e5376" opacity="1.00" d=" M 636.88 5.73 C 637.14 5.46 637.66 4.91 637.92 4.63 C 640.01 4.61 640.06 6.48 640.25 8.09 C 639.93 8.54 639.31 9.45 638.99 9.90 C 637.01 12.18 634.83 14.83 634.94 18.03 C 636.36 18.03 637.87 18.00 639.13 17.20 C 643.77 14.86 648.86 13.05 654.18 14.03 C 651.04 21.08 642.89 24.63 637.04 29.15 C 634.96 28.97 632.79 29.88 632.01 31.91 C 628.23 34.62 624.01 36.62 620.15 39.18 C 620.10 39.63 620.00 40.52 619.95 40.97 C 624.33 40.63 628.68 39.82 633.11 40.03 C 633.23 41.92 632.12 43.45 631.08 44.91 C 629.21 46.16 627.55 47.75 626.74 49.90 C 625.76 50.84 624.80 51.82 623.89 52.83 C 621.27 53.80 619.78 56.13 618.13 58.21 C 600.73 72.21 581.76 84.60 561.12 93.26 C 552.11 88.80 541.78 89.08 532.00 88.26 C 530.08 88.40 527.87 89.33 526.79 87.13 C 534.72 83.30 541.92 78.14 549.77 74.18 C 554.11 77.52 559.45 79.38 564.80 80.38 C 568.49 80.96 572.22 81.17 575.98 81.01 C 577.18 76.89 571.73 79.46 569.23 79.30 C 563.21 77.71 556.76 76.69 551.60 72.97 C 570.63 59.00 590.77 46.54 610.07 32.91 C 611.05 32.27 613.05 31.61 612.69 30.15 C 611.16 29.16 609.66 30.50 608.95 31.79 C 584.49 47.24 560.83 63.89 536.33 79.27 C 538.09 75.91 533.14 77.37 531.46 75.74 C 529.77 74.78 534.42 75.61 533.99 73.95 C 534.34 72.60 535.15 71.09 534.05 69.86 C 530.38 69.42 532.16 66.11 530.44 63.91 C 530.62 62.30 530.93 60.70 531.02 59.08 C 526.29 58.81 521.52 59.46 516.87 58.47 C 523.52 56.66 530.61 56.50 537.04 53.90 C 539.27 54.59 541.55 54.00 542.97 52.10 C 557.50 46.90 571.26 39.73 584.02 31.04 C 587.60 30.90 591.44 31.48 594.91 30.19 C 609.11 27.63 620.40 18.08 631.86 10.02 C 634.33 9.80 635.87 7.79 636.88 5.73 Z" />
</g>
<g id="#29303b77">
<path fill="#29303b" opacity="0.47" d=" M 631.86 10.02 C 633.18 8.22 634.76 6.58 636.88 5.73 C 635.87 7.79 634.33 9.80 631.86 10.02 Z" />
</g>
<g id="#29313d7a">
<path fill="#29313d" opacity="0.48" d=" M 93.09 8.89 C 94.94 11.07 96.25 13.61 97.46 16.19 C 96.79 16.98 96.05 17.71 95.25 18.37 C 94.93 18.08 94.28 17.49 93.96 17.20 C 98.57 17.27 92.91 11.33 93.09 8.89 Z" />
</g>
<g id="#29303d80">
<path fill="#29303d" opacity="0.50" d=" M 634.94 18.03 C 634.83 14.83 637.01 12.18 638.99 9.90 C 638.30 12.37 637.13 14.64 636.11 16.97 C 636.86 17.03 638.37 17.14 639.13 17.20 C 637.87 18.00 636.36 18.03 634.94 18.03 Z" />
</g>
<g id="#3c5174fb">
<path fill="#3c5174" opacity="1.00" d=" M 97.46 16.19 C 99.20 14.36 101.01 12.61 102.86 10.89 C 113.71 18.66 124.91 26.78 138.07 30.03 C 138.29 27.72 136.63 26.02 135.51 24.21 C 135.81 22.79 136.67 21.95 138.08 21.68 C 147.25 27.93 156.47 34.12 165.87 40.03 C 168.55 42.32 171.68 44.34 175.24 44.83 C 181.83 47.98 188.63 50.66 195.23 53.79 C 189.54 53.26 184.00 51.96 178.81 49.56 C 175.18 50.93 171.32 53.87 167.17 53.55 C 165.80 54.50 164.76 55.82 163.67 57.05 C 150.77 49.04 137.98 40.85 125.12 32.77 C 121.76 30.71 118.35 28.70 114.74 27.09 C 116.56 30.45 121.04 31.39 123.89 33.89 C 142.96 46.90 162.76 58.86 181.77 71.96 C 174.39 72.21 168.16 77.41 160.78 78.14 C 158.88 77.98 157.18 78.73 155.67 79.81 C 158.23 80.15 160.75 80.04 163.23 79.48 C 169.94 78.19 176.59 76.22 182.34 72.44 C 189.86 76.95 197.49 81.26 205.30 85.25 C 201.83 87.58 197.47 86.49 193.60 87.51 C 187.12 88.38 181.18 91.24 174.79 92.43 C 172.83 91.80 170.94 90.97 169.13 89.99 C 167.03 88.42 164.69 86.95 161.96 87.06 C 159.57 84.42 156.24 82.93 152.87 82.01 C 138.78 74.73 125.26 66.16 112.83 56.28 C 109.77 52.02 106.17 48.03 101.81 45.08 C 101.08 44.11 100.36 43.14 99.69 42.12 C 100.00 35.93 113.72 44.40 111.88 37.20 C 110.56 36.73 109.22 36.36 107.87 36.02 C 101.65 32.65 95.42 29.21 89.68 25.04 C 90.87 22.31 93.17 20.40 95.25 18.37 C 96.05 17.71 96.79 16.98 97.46 16.19 Z" />
</g>
<g id="#2a2f365c">
<path fill="#2a2f36" opacity="0.36" d=" M 77.94 12.98 C 80.39 13.02 82.81 13.25 85.23 13.70 C 81.39 13.20 77.91 13.08 79.78 17.22 C 78.30 16.27 77.80 14.69 77.94 12.98 Z" />
</g>
<g id="#3b4d6cee">
<path fill="#3b4d6c" opacity="0.93" d=" M 79.78 17.22 C 77.91 13.08 81.39 13.20 85.23 13.70 C 88.32 14.32 91.30 15.50 93.96 17.20 C 94.28 17.49 94.93 18.08 95.25 18.37 C 93.17 20.40 90.87 22.31 89.68 25.04 C 86.43 22.37 82.88 20.07 79.78 17.22 Z" />
</g>
<g id="#2b34408b">
<path fill="#2b3440" opacity="0.55" d=" M 132.92 18.89 C 134.89 19.29 136.43 20.62 138.08 21.68 C 136.67 21.95 135.81 22.79 135.51 24.21 C 134.37 22.59 133.14 20.92 132.92 18.89 Z" />
</g>
<g id="#2a2e356f">
<path fill="#2a2e35" opacity="0.44" d=" M 595.96 22.59 C 597.19 21.49 598.64 20.66 600.15 19.97 C 599.64 21.90 598.32 23.43 597.24 25.06 C 596.92 24.44 596.28 23.21 595.96 22.59 Z" />
</g>
<g id="#394964e0">
<path fill="#394964" opacity="0.88" d=" M 584.02 31.04 C 587.64 27.74 592.05 25.53 595.96 22.59 C 596.28 23.21 596.92 24.44 597.24 25.06 C 596.21 26.65 595.39 28.36 594.91 30.19 C 591.44 31.48 587.60 30.90 584.02 31.04 Z" />
</g>
<g id="#233556ff">
<path fill="#233556" opacity="1.00" d=" M 114.74 27.09 C 118.35 28.70 121.76 30.71 125.12 32.77 C 124.81 33.05 124.19 33.61 123.89 33.89 C 121.04 31.39 116.56 30.45 114.74 27.09 Z" />
</g>
<g id="#28303b7c">
<path fill="#28303b" opacity="0.49" d=" M 632.01 31.91 C 632.79 29.88 634.96 28.97 637.04 29.15 C 636.15 31.09 634.04 31.98 632.01 31.91 Z" />
</g>
<g id="#2b3e5fff">
<path fill="#2b3e5f" opacity="1.00" d=" M 608.95 31.79 C 609.66 30.50 611.16 29.16 612.69 30.15 C 613.05 31.61 611.05 32.27 610.07 32.91 C 609.79 32.63 609.23 32.07 608.95 31.79 Z" />
</g>
<g id="#1a2948ff">
<path fill="#1a2948" opacity="1.00" d=" M 536.33 79.27 C 560.83 63.89 584.49 47.24 608.95 31.79 C 609.23 32.07 609.79 32.63 610.07 32.91 C 590.77 46.54 570.63 59.00 551.60 72.97 C 551.14 73.27 550.23 73.88 549.77 74.18 C 541.92 78.14 534.72 83.30 526.79 87.13 C 524.65 88.14 522.43 89.10 520.69 90.74 C 524.81 91.28 529.21 90.40 533.27 91.70 C 527.93 93.45 522.16 92.36 516.87 90.96 C 517.20 90.52 517.86 89.63 518.19 89.19 C 519.25 88.92 520.29 88.58 521.31 88.17 C 526.56 85.69 531.71 82.82 536.33 79.27 Z" />
</g>
<g id="#182746ff">
<path fill="#182746" opacity="1.00" d=" M 123.89 33.89 C 124.19 33.61 124.81 33.05 125.12 32.77 C 137.98 40.85 150.77 49.04 163.67 57.05 C 177.92 66.15 192.36 75.03 206.07 84.93 L 205.30 85.25 C 197.49 81.26 189.86 76.95 182.34 72.44 L 181.77 71.96 C 162.76 58.86 142.96 46.90 123.89 33.89 Z" />
</g>
<g id="#2c323b6f">
<path fill="#2c323b" opacity="0.44" d=" M 107.87 36.02 C 109.22 36.36 110.56 36.73 111.88 37.20 C 113.72 44.40 100.00 35.93 99.69 42.12 C 99.11 41.20 98.86 40.19 98.93 39.08 C 102.99 38.97 107.05 38.93 111.11 38.97 C 110.04 37.99 108.93 37.03 107.87 36.02 Z" />
</g>
<g id="#282f3b7a">
<path fill="#282f3b" opacity="0.48" d=" M 165.87 40.03 C 169.32 40.85 172.41 42.72 175.24 44.83 C 171.68 44.34 168.55 42.32 165.87 40.03 Z" />
</g>
<g id="#22252837">
<path fill="#222528" opacity="0.22" d=" M 354.78 42.82 C 363.17 41.51 371.82 41.55 380.22 42.79 C 371.73 42.99 363.25 43.17 354.78 42.82 Z" />
</g>
<g id="#2c333e6b">
<path fill="#2c333e" opacity="0.42" d=" M 337.73 43.70 C 342.38 42.11 347.41 43.47 352.22 43.20 C 347.44 44.19 342.55 44.17 337.73 43.70 Z" />
</g>
<g id="#435a7eff">
<path fill="#435a7e" opacity="1.00" d=" M 352.22 43.20 C 352.86 43.11 354.14 42.92 354.78 42.82 C 363.25 43.17 371.73 42.99 380.22 42.79 C 380.86 42.89 382.14 43.08 382.78 43.17 C 387.52 44.23 392.41 44.06 397.23 43.79 C 398.40 43.93 399.59 44.06 400.77 44.20 C 404.19 44.86 407.71 45.07 411.19 44.87 C 411.59 44.93 412.41 45.05 412.81 45.11 C 415.89 45.79 419.08 46.06 422.24 45.80 C 433.61 47.88 445.18 48.66 456.59 50.56 C 471.79 52.29 486.44 57.37 501.76 58.25 C 506.49 58.91 511.43 59.59 516.16 58.46 L 516.87 58.47 C 521.52 59.46 526.29 58.81 531.02 59.08 C 530.93 60.70 530.62 62.30 530.44 63.91 C 532.16 66.11 530.38 69.42 534.05 69.86 C 532.14 69.81 529.40 70.45 529.98 72.96 C 529.55 75.01 532.82 73.52 533.99 73.95 C 534.42 75.61 529.77 74.78 531.46 75.74 C 533.14 77.37 538.09 75.91 536.33 79.27 C 531.71 82.82 526.56 85.69 521.31 88.17 C 515.54 85.65 508.99 85.52 502.88 86.66 C 499.63 86.70 495.58 86.89 493.77 83.71 C 497.22 81.38 503.63 80.64 504.08 76.05 C 500.38 75.04 497.95 77.74 494.89 78.85 C 477.27 85.95 458.43 90.16 441.99 99.99 C 436.60 102.59 431.23 105.55 427.27 110.14 C 427.48 110.66 427.89 111.71 428.10 112.23 C 418.02 119.63 408.48 128.48 402.99 139.90 C 398.51 142.28 396.80 147.57 393.01 150.26 C 378.91 141.10 359.56 141.87 345.04 149.84 C 341.59 140.65 336.98 131.88 330.72 124.26 C 319.31 114.14 306.14 105.93 291.95 100.38 C 294.29 98.59 290.34 97.99 289.15 97.05 C 272.05 89.61 254.09 83.97 237.31 75.70 C 234.19 74.32 228.68 72.32 228.19 77.23 C 227.61 75.72 224.25 73.73 227.73 72.75 C 233.46 68.93 236.74 62.61 242.21 58.49 C 249.61 58.57 257.81 58.48 264.17 54.24 C 272.38 55.02 281.60 57.42 288.85 51.97 C 293.78 50.32 300.06 50.67 304.24 47.12 C 315.41 46.09 326.54 44.55 337.73 43.70 C 342.55 44.17 347.44 44.19 352.22 43.20 M 274.98 62.98 C 274.23 66.97 279.27 67.75 282.06 68.92 C 285.78 69.30 291.79 67.18 292.03 62.97 C 289.07 62.48 286.97 65.51 284.03 65.02 C 279.85 67.52 278.59 62.03 274.98 62.98 M 308.21 63.15 C 307.94 63.40 307.40 63.90 307.13 64.15 C 308.90 67.72 314.11 69.03 317.92 68.96 C 320.40 67.46 325.30 66.69 325.03 62.97 C 322.07 62.48 319.97 65.51 317.03 65.02 C 312.88 68.00 311.68 61.75 308.21 63.15 M 337.96 62.97 C 338.18 67.20 343.65 68.16 347.00 69.00 C 350.13 68.20 355.68 67.15 355.01 62.93 C 352.53 63.19 350.62 65.44 348.02 65.02 C 344.08 66.56 341.60 62.53 337.96 62.97 M 372.98 62.98 C 372.23 66.97 377.27 67.75 380.06 68.92 C 383.78 69.30 389.79 67.18 390.03 62.97 C 387.07 62.48 384.97 65.51 382.03 65.02 C 377.84 67.52 376.59 62.03 372.98 62.98 M 406.21 63.15 C 405.94 63.40 405.40 63.90 405.13 64.15 C 406.90 67.72 412.11 69.03 415.92 68.96 C 418.39 67.46 423.30 66.69 423.03 62.97 C 420.07 62.48 417.97 65.51 415.03 65.02 C 410.87 68.00 409.68 61.75 406.21 63.15 M 435.96 62.97 C 436.18 67.20 441.64 68.16 445.00 69.00 C 448.13 68.20 453.68 67.15 453.01 62.93 C 450.53 63.19 448.62 65.44 446.02 65.02 C 442.08 66.56 439.60 62.53 435.96 62.97 M 507.75 74.85 C 508.39 79.79 518.36 74.55 515.02 72.97 C 514.72 71.88 513.71 71.54 512.00 71.96 C 507.81 65.58 505.36 75.61 507.75 74.85 M 292.96 74.97 C 293.03 78.65 297.77 80.46 300.99 80.02 C 304.13 80.64 310.07 79.03 310.04 74.98 C 308.31 74.67 306.85 75.50 305.66 76.65 C 301.32 78.44 297.15 75.36 292.96 74.97 M 321.97 74.97 C 323.51 81.64 336.24 82.28 338.95 75.95 C 339.71 74.07 336.42 75.04 335.78 75.78 C 331.73 79.25 326.41 75.37 321.97 74.97 M 390.96 74.97 C 391.03 78.65 395.77 80.46 398.99 80.02 C 402.13 80.64 408.07 79.03 408.04 74.98 C 406.31 74.67 404.85 75.50 403.66 76.65 C 399.32 78.44 395.15 75.36 390.96 74.97 M 419.97 74.97 C 421.51 81.64 434.24 82.28 436.95 75.95 C 437.71 74.07 434.42 75.04 433.78 75.78 C 429.73 79.25 424.41 75.37 419.97 74.97 M 308.21 84.17 C 305.32 86.18 310.29 88.28 312.06 88.91 C 316.49 91.40 321.50 89.11 324.86 85.86 C 325.02 84.21 322.79 83.52 321.69 84.65 C 317.55 87.56 312.40 85.31 308.21 84.17 M 406.21 84.17 C 403.32 86.18 408.28 88.28 410.06 88.91 C 414.49 91.40 419.50 89.11 422.86 85.86 C 423.02 84.21 420.78 83.52 419.69 84.65 C 415.55 87.56 410.40 85.31 406.21 84.17 M 325.98 96.98 C 325.23 100.97 330.27 101.75 333.06 102.92 C 336.78 103.30 342.79 101.18 343.03 96.97 C 340.07 96.48 337.97 99.51 335.03 99.02 C 330.85 101.51 329.59 96.03 325.98 96.98 M 359.21 97.15 C 358.94 97.40 358.40 97.90 358.13 98.15 C 359.90 101.72 365.11 103.03 368.92 102.96 C 371.40 101.46 376.30 100.69 376.03 96.97 C 373.07 96.48 370.97 99.51 368.03 99.02 C 363.87 102.00 362.68 95.75 359.21 97.15 M 388.96 96.97 C 389.18 101.20 394.65 102.16 398.00 103.00 C 401.13 102.20 406.68 101.15 406.01 96.93 C 403.53 97.19 401.62 99.44 399.02 99.02 C 395.08 100.56 392.60 96.53 388.96 96.97 M 343.96 108.97 C 344.03 112.65 348.77 114.46 351.99 114.02 C 355.13 114.64 361.07 113.03 361.04 108.98 C 359.31 108.67 357.85 109.50 356.66 110.65 C 352.32 112.44 348.15 109.36 343.96 108.97 M 372.97 108.97 C 374.51 115.64 387.24 116.28 389.95 109.95 C 390.71 108.07 387.42 109.04 386.78 109.78 C 382.73 113.25 377.41 109.37 372.97 108.97 M 359.21 118.17 C 356.32 120.18 361.28 122.28 363.06 122.91 C 367.49 125.40 372.50 123.11 375.86 119.86 C 376.02 118.21 373.78 117.52 372.69 118.65 C 368.55 121.56 363.40 119.31 359.21 118.17 Z" />
</g>
<g id="#2c323c67">
<path fill="#2c323c" opacity="0.40" d=" M 382.78 43.17 C 387.60 42.96 392.45 42.85 397.23 43.79 C 392.41 44.06 387.52 44.23 382.78 43.17 Z" />
</g>
<g id="#2c333c6b">
<path fill="#2c333c" opacity="0.42" d=" M 400.77 44.20 C 404.27 43.89 407.74 44.07 411.19 44.87 C 407.71 45.07 404.19 44.86 400.77 44.20 Z" />
</g>
<g id="#29303c7d">
<path fill="#29303c" opacity="0.49" d=" M 101.81 45.08 C 106.17 48.03 109.77 52.02 112.83 56.28 C 108.28 53.61 104.53 49.55 101.81 45.08 Z" />
</g>
<g id="#2b313b69">
<path fill="#2b313b" opacity="0.41" d=" M 412.81 45.11 C 415.98 44.99 419.09 45.22 422.24 45.80 C 419.08 46.06 415.89 45.79 412.81 45.11 Z" />
</g>
<g id="#29303d7b">
<path fill="#29303d" opacity="0.48" d=" M 626.74 49.90 C 627.55 47.75 629.21 46.16 631.08 44.91 C 630.71 47.33 628.81 48.88 626.74 49.90 Z" />
<path fill="#29303d" opacity="0.48" d=" M 618.13 58.21 C 619.78 56.13 621.27 53.80 623.89 52.83 C 622.22 54.90 620.67 57.16 618.13 58.21 Z" />
</g>
<g id="#3f5578fc">
<path fill="#3f5578" opacity="1.00" d=" M 231.27 58.32 C 255.62 54.78 279.80 50.01 304.24 47.12 C 300.06 50.67 293.78 50.32 288.85 51.97 C 281.60 57.42 272.38 55.02 264.17 54.24 C 257.81 58.48 249.61 58.57 242.21 58.49 C 236.74 62.61 233.46 68.93 227.73 72.75 C 224.25 73.73 227.61 75.72 228.19 77.23 L 227.85 77.98 C 223.59 76.71 219.36 74.82 214.84 75.02 C 221.46 80.25 230.36 82.42 238.22 85.75 C 229.79 87.60 221.20 85.91 212.74 87.31 C 210.47 86.64 208.29 85.74 206.07 84.93 C 192.36 75.03 177.92 66.15 163.67 57.05 C 164.76 55.82 165.80 54.50 167.17 53.55 C 171.32 53.87 175.18 50.93 178.81 49.56 C 184.00 51.96 189.54 53.26 195.23 53.79 C 202.40 55.29 209.38 57.82 216.77 58.25 C 221.52 58.83 226.57 59.82 231.27 58.32 Z" />
</g>
<g id="#29303a6b">
<path fill="#29303a" opacity="0.42" d=" M 537.04 53.90 C 538.70 52.56 540.79 51.63 542.97 52.10 C 541.55 54.00 539.27 54.59 537.04 53.90 Z" />
</g>
<g id="#2d354387">
<path fill="#2d3543" opacity="0.53" d=" M 216.77 58.25 C 221.60 57.96 226.43 58.11 231.27 58.32 C 226.57 59.82 221.52 58.83 216.77 58.25 Z" />
</g>
<g id="#2e374483">
<path fill="#2e3744" opacity="0.51" d=" M 501.76 58.25 C 506.56 57.95 511.35 58.08 516.16 58.46 C 511.43 59.59 506.49 58.91 501.76 58.25 Z" />
</g>
<g id="#4f698bff">
<path fill="#4f698b" opacity="1.00" d=" M 274.98 62.98 C 278.59 62.03 279.85 67.52 284.03 65.02 C 286.97 65.51 289.07 62.48 292.03 62.97 C 291.79 67.18 285.78 69.30 282.06 68.92 C 279.27 67.75 274.23 66.97 274.98 62.98 Z" />
<path fill="#4f698b" opacity="1.00" d=" M 337.96 62.97 C 341.60 62.53 344.08 66.56 348.02 65.02 C 350.62 65.44 352.53 63.19 355.01 62.93 C 355.68 67.15 350.13 68.20 347.00 69.00 C 343.65 68.16 338.18 67.20 337.96 62.97 Z" />
<path fill="#4f698b" opacity="1.00" d=" M 372.98 62.98 C 376.59 62.03 377.84 67.52 382.03 65.02 C 384.97 65.51 387.07 62.48 390.03 62.97 C 389.79 67.18 383.78 69.30 380.06 68.92 C 377.27 67.75 372.23 66.97 372.98 62.98 Z" />
<path fill="#4f698b" opacity="1.00" d=" M 435.96 62.97 C 439.60 62.53 442.08 66.56 446.02 65.02 C 448.62 65.44 450.53 63.19 453.01 62.93 C 453.68 67.15 448.13 68.20 445.00 69.00 C 441.64 68.16 436.18 67.20 435.96 62.97 Z" />
<path fill="#4f698b" opacity="1.00" d=" M 325.98 96.98 C 329.59 96.03 330.85 101.51 335.03 99.02 C 337.97 99.51 340.07 96.48 343.03 96.97 C 342.79 101.18 336.78 103.30 333.06 102.92 C 330.27 101.75 325.23 100.97 325.98 96.98 Z" />
<path fill="#4f698b" opacity="1.00" d=" M 388.96 96.97 C 392.60 96.53 395.08 100.56 399.02 99.02 C 401.62 99.44 403.53 97.19 406.01 96.93 C 406.68 101.15 401.13 102.20 398.00 103.00 C 394.65 102.16 389.18 101.20 388.96 96.97 Z" />
</g>
<g id="#4f698aff">
<path fill="#4f698a" opacity="1.00" d=" M 308.21 63.15 C 311.68 61.75 312.88 68.00 317.03 65.02 C 319.97 65.51 322.07 62.48 325.03 62.97 C 325.30 66.69 320.40 67.46 317.92 68.96 C 314.11 69.03 308.90 67.72 307.13 64.15 C 307.40 63.90 307.94 63.40 308.21 63.15 Z" />
<path fill="#4f698a" opacity="1.00" d=" M 406.21 63.15 C 409.68 61.75 410.87 68.00 415.03 65.02 C 417.97 65.51 420.07 62.48 423.03 62.97 C 423.30 66.69 418.39 67.46 415.92 68.96 C 412.11 69.03 406.90 67.72 405.13 64.15 C 405.40 63.90 405.94 63.40 406.21 63.15 Z" />
<path fill="#4f698a" opacity="1.00" d=" M 308.21 84.17 C 312.40 85.31 317.55 87.56 321.69 84.65 C 322.79 83.52 325.02 84.21 324.86 85.86 C 321.50 89.11 316.49 91.40 312.06 88.91 C 310.29 88.28 305.32 86.18 308.21 84.17 Z" />
<path fill="#4f698a" opacity="1.00" d=" M 406.21 84.17 C 410.40 85.31 415.55 87.56 419.69 84.65 C 420.78 83.52 423.02 84.21 422.86 85.86 C 419.50 89.11 414.49 91.40 410.06 88.91 C 408.28 88.28 403.32 86.18 406.21 84.17 Z" />
<path fill="#4f698a" opacity="1.00" d=" M 359.21 97.15 C 362.68 95.75 363.87 102.00 368.03 99.02 C 370.97 99.51 373.07 96.48 376.03 96.97 C 376.30 100.69 371.40 101.46 368.92 102.96 C 365.11 103.03 359.90 101.72 358.13 98.15 C 358.40 97.90 358.94 97.40 359.21 97.15 Z" />
<path fill="#4f698a" opacity="1.00" d=" M 359.21 118.17 C 363.40 119.31 368.55 121.56 372.69 118.65 C 373.78 117.52 376.02 118.21 375.86 119.86 C 372.50 123.11 367.49 125.40 363.06 122.91 C 361.28 122.28 356.32 120.18 359.21 118.17 Z" />
</g>
<g id="#a7c1d2ff">
<path fill="#a7c1d2" opacity="1.00" d=" M 529.98 72.96 C 529.40 70.45 532.14 69.81 534.05 69.86 C 535.15 71.09 534.34 72.60 533.99 73.95 C 532.82 73.52 529.55 75.01 529.98 72.96 Z" />
</g>
<g id="#d1dae4ff">
<path fill="#d1dae4" opacity="1.00" d=" M 160.78 78.14 C 168.16 77.41 174.39 72.21 181.77 71.96 L 182.34 72.44 C 176.59 76.22 169.94 78.19 163.23 79.48 C 162.62 79.14 161.39 78.48 160.78 78.14 Z" />
</g>
<g id="#5f82a0ff">
<path fill="#5f82a0" opacity="1.00" d=" M 507.75 74.85 C 505.36 75.61 507.81 65.58 512.00 71.96 C 513.71 71.54 514.72 71.88 515.02 72.97 C 512.40 73.33 508.00 71.38 507.75 74.85 Z" />
</g>
<g id="#99c5d7ff">
<path fill="#99c5d7" opacity="1.00" d=" M 507.75 74.85 C 508.00 71.38 512.40 73.33 515.02 72.97 C 518.36 74.55 508.39 79.79 507.75 74.85 Z" />
</g>
<g id="#d8e0eaff">
<path fill="#d8e0ea" opacity="1.00" d=" M 549.77 74.18 C 550.23 73.88 551.14 73.27 551.60 72.97 C 556.76 76.69 563.21 77.71 569.23 79.30 C 567.76 79.72 566.28 80.07 564.80 80.38 C 559.45 79.38 554.11 77.52 549.77 74.18 Z" />
</g>
<g id="#95c1d3ff">
<path fill="#95c1d3" opacity="1.00" d=" M 228.19 77.23 C 228.68 72.32 234.19 74.32 237.31 75.70 C 254.09 83.97 272.05 89.61 289.15 97.05 C 288.81 97.37 288.12 98.02 287.78 98.34 C 279.19 95.41 270.19 93.95 261.22 92.80 C 258.54 92.10 255.93 91.40 253.27 90.71 C 249.96 89.60 246.58 88.69 243.24 87.75 C 241.56 87.07 239.90 86.39 238.22 85.75 C 230.36 82.42 221.46 80.25 214.84 75.02 C 219.36 74.82 223.59 76.71 227.85 77.98 L 228.19 77.23 Z" />
</g>
<g id="#506a8bff">
<path fill="#506a8b" opacity="1.00" d=" M 292.96 74.97 C 297.15 75.36 301.32 78.44 305.66 76.65 C 306.85 75.50 308.31 74.67 310.04 74.98 C 310.07 79.03 304.13 80.64 300.99 80.02 C 297.77 80.46 293.03 78.65 292.96 74.97 Z" />
<path fill="#506a8b" opacity="1.00" d=" M 390.96 74.97 C 395.15 75.36 399.32 78.44 403.66 76.65 C 404.85 75.50 406.31 74.67 408.04 74.98 C 408.07 79.03 402.13 80.64 398.99 80.02 C 395.77 80.46 391.03 78.65 390.96 74.97 Z" />
<path fill="#506a8b" opacity="1.00" d=" M 343.96 108.97 C 348.15 109.36 352.32 112.44 356.66 110.65 C 357.85 109.50 359.31 108.67 361.04 108.98 C 361.07 113.03 355.13 114.64 351.99 114.02 C 348.77 114.46 344.03 112.65 343.96 108.97 Z" />
</g>
<g id="#506a8cff">
<path fill="#506a8c" opacity="1.00" d=" M 321.97 74.97 C 326.41 75.37 331.73 79.25 335.78 75.78 C 336.42 75.04 339.71 74.07 338.95 75.95 C 336.24 82.28 323.51 81.64 321.97 74.97 Z" />
<path fill="#506a8c" opacity="1.00" d=" M 419.97 74.97 C 424.41 75.37 429.73 79.25 433.78 75.78 C 434.42 75.04 437.71 74.07 436.95 75.95 C 434.24 82.28 421.51 81.64 419.97 74.97 Z" />
<path fill="#506a8c" opacity="1.00" d=" M 372.97 108.97 C 377.41 109.37 382.73 113.25 386.78 109.78 C 387.42 109.04 390.71 108.07 389.95 109.95 C 387.24 116.28 374.51 115.64 372.97 108.97 Z" />
</g>
<g id="#97c1d4ff">
<path fill="#97c1d4" opacity="1.00" d=" M 494.89 78.85 C 497.95 77.74 500.38 75.04 504.08 76.05 C 503.63 80.64 497.22 81.38 493.77 83.71 C 486.05 86.91 478.05 89.61 470.85 93.91 C 467.55 95.37 464.11 96.44 460.73 97.65 C 449.03 100.33 438.12 105.72 428.10 112.23 C 427.89 111.71 427.48 110.66 427.27 110.14 C 431.23 105.55 436.60 102.59 441.99 99.99 C 458.43 90.16 477.27 85.95 494.89 78.85 Z" />
</g>
<g id="#909fb7ff">
<path fill="#909fb7" opacity="1.00" d=" M 155.67 79.81 C 157.18 78.73 158.88 77.98 160.78 78.14 C 161.39 78.48 162.62 79.14 163.23 79.48 C 160.75 80.04 158.23 80.15 155.67 79.81 Z" />
</g>
<g id="#99a7bcff">
<path fill="#99a7bc" opacity="1.00" d=" M 569.23 79.30 C 571.73 79.46 577.18 76.89 575.98 81.01 C 572.22 81.17 568.49 80.96 564.80 80.38 C 566.28 80.07 567.76 79.72 569.23 79.30 Z" />
</g>
<g id="#292f3b74">
<path fill="#292f3b" opacity="0.45" d=" M 152.87 82.01 C 156.24 82.93 159.57 84.42 161.96 87.06 C 158.65 85.96 155.46 84.38 152.87 82.01 Z" />
</g>
<g id="#3e5579ff">
<path fill="#3e5579" opacity="1.00" d=" M 470.85 93.91 C 478.05 89.61 486.05 86.91 493.77 83.71 C 495.58 86.89 499.63 86.70 502.88 86.66 C 508.99 85.52 515.54 85.65 521.31 88.17 C 520.29 88.58 519.25 88.92 518.19 89.19 C 511.05 89.28 503.53 87.91 496.75 90.75 C 488.10 91.69 479.53 93.23 470.85 93.91 Z" />
</g>
<g id="#324265fe">
<path fill="#324265" opacity="1.00" d=" M 205.30 85.25 L 206.07 84.93 C 207.78 87.64 212.52 87.52 213.15 90.85 C 202.67 91.75 191.43 91.29 181.69 95.83 L 180.99 95.71 C 181.05 93.23 177.96 92.66 176.06 93.19 C 175.74 93.00 175.11 92.62 174.79 92.43 C 181.18 91.24 187.12 88.38 193.60 87.51 C 197.47 86.49 201.83 87.58 205.30 85.25 Z" />
</g>
<g id="#192447ff">
<path fill="#192447" opacity="1.00" d=" M 206.07 84.93 C 208.29 85.74 210.47 86.64 212.74 87.31 C 213.25 87.54 214.26 88.01 214.76 88.25 C 217.86 90.01 221.31 91.37 225.00 90.94 C 234.41 91.07 243.86 91.22 253.27 90.71 C 255.93 91.40 258.54 92.10 261.22 92.80 C 255.66 94.04 249.81 92.90 244.18 94.23 C 243.77 95.84 242.81 97.86 244.81 98.77 C 242.84 98.90 241.69 100.20 240.85 101.84 C 240.08 101.95 238.55 102.17 237.79 102.27 C 236.26 102.11 234.74 101.92 233.22 101.76 C 229.73 101.02 226.25 101.03 222.78 101.77 C 216.82 102.00 210.87 102.26 204.95 102.93 C 205.30 101.69 205.71 100.45 205.96 99.18 C 199.03 97.96 191.85 97.23 184.99 99.06 C 185.63 98.45 186.27 97.83 186.92 97.23 C 185.14 96.89 183.38 96.50 181.69 95.83 C 191.43 91.29 202.67 91.75 213.15 90.85 C 212.52 87.52 207.78 87.64 206.07 84.93 Z" />
</g>
<g id="#384d70ff">
<path fill="#384d70" opacity="1.00" d=" M 212.74 87.31 C 221.20 85.91 229.79 87.60 238.22 85.75 C 239.90 86.39 241.56 87.07 243.24 87.75 C 233.74 88.08 224.25 87.89 214.76 88.25 C 214.26 88.01 213.25 87.54 212.74 87.31 Z" />
</g>
<g id="#292f3a6f">
<path fill="#292f3a" opacity="0.44" d=" M 161.96 87.06 C 164.69 86.95 167.03 88.42 169.13 89.99 C 166.41 90.04 164.05 88.65 161.96 87.06 Z" />
</g>
<g id="#37486cfd">
<path fill="#37486c" opacity="1.00" d=" M 520.69 90.74 C 522.43 89.10 524.65 88.14 526.79 87.13 C 527.87 89.33 530.08 88.40 532.00 88.26 C 541.78 89.08 552.11 88.80 561.12 93.26 C 560.40 93.81 559.70 94.36 559.01 94.93 C 550.48 93.47 541.95 91.87 533.27 91.70 C 529.21 90.40 524.81 91.28 520.69 90.74 Z" />
</g>
<g id="#2f3f62ff">
<path fill="#2f3f62" opacity="1.00" d=" M 214.76 88.25 C 224.25 87.89 233.74 88.08 243.24 87.75 C 246.58 88.69 249.96 89.60 253.27 90.71 C 243.86 91.22 234.41 91.07 225.00 90.94 C 221.31 91.37 217.86 90.01 214.76 88.25 Z" />
</g>
<g id="#384b6fff">
<path fill="#384b6f" opacity="1.00" d=" M 496.75 90.75 C 503.53 87.91 511.05 89.28 518.19 89.19 C 517.86 89.63 517.20 90.52 516.87 90.96 C 510.15 90.95 503.44 91.20 496.75 90.75 Z" />
</g>
<g id="#172145ff">
<path fill="#172145" opacity="1.00" d=" M 470.85 93.91 C 479.53 93.23 488.10 91.69 496.75 90.75 C 503.44 91.20 510.15 90.95 516.87 90.96 C 522.16 92.36 527.93 93.45 533.27 91.70 C 541.95 91.87 550.48 93.47 559.01 94.93 C 558.52 99.82 551.66 101.32 548.01 98.94 C 543.34 96.26 538.00 96.37 532.83 96.07 C 533.68 96.88 534.61 97.60 535.52 98.35 C 534.65 99.57 533.73 100.74 532.86 101.95 C 531.31 101.92 529.76 101.87 528.22 101.77 C 520.16 101.14 511.70 99.82 503.73 101.70 C 499.54 102.10 495.37 102.57 491.19 102.99 C 491.06 102.54 490.80 101.62 490.67 101.16 C 481.55 100.96 472.39 100.97 463.35 99.63 C 462.46 98.98 461.59 98.33 460.73 97.65 C 464.11 96.44 467.55 95.37 470.85 93.91 Z" />
</g>
<g id="#292e3970">
<path fill="#292e39" opacity="0.44" d=" M 176.06 93.19 C 177.96 92.66 181.05 93.23 180.99 95.71 L 180.29 95.86 C 178.76 95.17 177.33 94.28 176.06 93.19 Z" />
</g>
<g id="#172144ff">
<path fill="#172144" opacity="1.00" d=" M 244.18 94.23 C 249.81 92.90 255.66 94.04 261.22 92.80 C 270.19 93.95 279.19 95.41 287.78 98.34 C 289.15 99.06 290.52 99.78 291.95 100.38 C 306.14 105.93 319.31 114.14 330.72 124.26 C 336.98 131.88 341.59 140.65 345.04 149.84 C 359.56 141.87 378.91 141.10 393.01 150.26 C 393.70 150.85 394.39 151.44 395.07 152.04 C 392.81 152.68 390.51 152.38 388.21 152.18 C 385.94 153.65 389.28 153.98 388.28 155.87 C 384.66 154.61 381.01 153.40 377.24 152.74 C 373.15 152.05 368.77 151.34 364.73 152.64 C 359.13 154.25 352.98 154.84 348.05 158.17 C 348.56 165.55 351.59 172.59 352.11 180.00 C 350.09 180.80 348.09 181.95 345.83 181.44 C 346.24 183.65 348.51 185.11 348.07 187.55 C 344.37 186.37 346.48 190.44 344.80 191.89 C 344.15 191.90 342.83 191.94 342.18 191.95 C 341.13 187.02 339.95 182.07 339.96 177.01 C 339.85 175.20 340.33 171.23 337.97 170.12 L 337.15 169.69 C 336.66 162.87 335.42 156.10 332.80 149.76 C 328.58 138.47 320.54 128.58 310.44 122.01 C 305.03 118.33 299.20 115.19 293.06 112.92 C 278.10 107.17 262.16 104.39 246.27 102.74 C 244.51 102.18 242.67 101.97 240.85 101.84 C 241.69 100.20 242.84 98.90 244.81 98.77 C 242.81 97.86 243.77 95.84 244.18 94.23 Z" />
</g>
<g id="#162041fd">
<path fill="#162041" opacity="1.00" d=" M 559.01 94.93 C 576.83 99.66 593.18 108.54 610.68 114.32 C 613.46 115.49 616.81 115.76 618.87 118.21 C 619.70 122.82 616.46 126.97 615.26 131.22 C 614.59 134.18 610.06 135.48 611.20 138.87 C 613.06 146.06 614.51 153.34 615.36 160.73 C 615.01 167.89 614.73 175.08 615.24 182.24 C 613.51 193.93 611.82 205.75 607.91 216.96 C 600.87 240.03 586.47 260.72 567.02 275.02 C 554.17 285.47 538.18 290.73 522.23 294.19 C 519.36 294.21 516.45 293.58 513.77 294.72 C 513.39 294.85 512.61 295.11 512.23 295.24 C 509.03 295.19 505.93 295.13 502.77 295.21 C 481.56 293.77 460.12 288.07 442.98 275.02 C 435.23 269.45 428.08 263.15 422.12 255.72 C 418.53 251.49 415.60 246.79 412.80 242.03 C 410.06 242.27 409.83 246.04 408.19 247.86 C 400.30 260.32 393.22 273.39 384.26 285.12 C 380.70 285.72 380.95 290.44 378.02 291.07 C 378.21 288.95 378.63 286.86 378.82 284.74 C 387.50 269.96 397.58 256.04 406.23 241.24 C 408.39 238.69 409.86 235.22 408.01 231.99 C 403.34 221.68 400.00 210.84 397.13 199.95 C 396.75 196.02 396.58 191.84 394.72 188.27 C 388.30 181.64 379.31 177.72 370.15 177.08 C 369.81 177.20 369.14 177.45 368.81 177.57 C 361.94 180.31 356.02 184.75 350.26 189.28 C 346.98 191.68 347.59 196.27 346.57 199.80 C 343.68 211.89 340.50 223.98 335.40 235.35 C 334.33 236.84 335.72 238.04 336.61 239.15 C 337.12 239.90 337.60 240.67 338.08 241.45 C 336.03 244.50 344.35 250.23 338.91 251.30 C 336.53 248.41 335.41 243.95 332.20 242.10 C 329.80 245.65 327.66 249.38 325.18 252.88 C 323.85 254.59 322.38 256.17 321.05 257.88 C 320.82 258.17 320.35 258.73 320.12 259.02 C 307.61 271.86 292.52 282.16 275.74 288.63 C 266.32 292.36 256.14 293.37 246.27 295.37 C 238.77 294.89 231.27 294.96 223.77 295.21 C 217.46 293.02 210.54 293.29 204.33 290.60 C 177.96 280.43 156.56 259.39 143.42 234.63 C 135.70 218.54 131.55 200.93 129.74 183.23 C 129.94 176.41 130.21 169.58 129.76 162.76 C 130.52 153.69 133.20 144.95 134.98 136.10 C 131.31 130.84 127.89 124.89 128.12 118.24 C 129.80 116.26 132.27 115.38 134.62 114.51 C 143.28 111.37 151.83 107.93 160.29 104.28 C 166.81 101.16 173.21 97.56 180.29 95.86 L 180.99 95.71 L 181.69 95.83 C 183.38 96.50 185.14 96.89 186.92 97.23 C 186.27 97.83 185.63 98.45 184.99 99.06 C 191.85 97.23 199.03 97.96 205.96 99.18 C 205.71 100.45 205.30 101.69 204.95 102.93 C 198.52 103.86 192.14 105.06 185.81 106.52 C 171.01 109.55 157.15 118.14 149.01 131.03 C 143.08 139.53 140.74 149.80 139.70 159.95 C 138.30 162.32 138.14 164.68 139.23 167.03 C 139.14 169.66 139.09 172.29 139.06 174.93 C 137.89 177.77 138.15 180.16 139.81 182.09 C 140.56 189.95 142.58 197.61 144.57 205.22 C 147.10 212.25 148.85 219.81 152.96 226.14 C 159.59 240.20 168.31 253.62 180.82 263.12 C 194.69 275.79 213.36 282.08 231.77 284.26 C 235.55 285.11 239.46 285.09 243.27 284.38 C 253.74 283.41 264.19 281.32 273.97 277.40 C 286.93 271.84 298.94 263.92 308.77 253.78 C 317.91 243.21 325.51 231.25 330.44 218.15 C 334.22 208.24 336.11 197.73 337.26 187.23 C 338.21 181.57 338.02 175.83 337.97 170.12 C 340.33 171.23 339.85 175.20 339.96 177.01 C 339.95 182.07 341.13 187.02 342.18 191.95 C 342.83 191.94 344.15 191.90 344.80 191.89 C 346.48 190.44 344.37 186.37 348.07 187.55 C 348.51 185.11 346.24 183.65 345.83 181.44 C 348.09 181.95 350.09 180.80 352.11 180.00 C 358.11 177.43 363.57 173.37 370.11 172.16 C 377.03 171.79 383.30 175.36 389.78 177.00 C 390.81 172.29 391.71 167.56 392.78 162.87 C 393.86 159.59 390.02 157.98 388.28 155.87 C 389.28 153.98 385.94 153.65 388.21 152.18 C 390.51 152.38 392.81 152.68 395.07 152.04 C 395.97 152.42 396.90 152.74 397.85 153.01 C 399.89 148.79 401.53 144.36 402.99 139.90 C 408.48 128.48 418.02 119.63 428.10 112.23 C 438.12 105.72 449.03 100.33 460.73 97.65 C 461.59 98.33 462.46 98.98 463.35 99.63 C 472.39 100.97 481.55 100.96 490.67 101.16 C 490.80 101.62 491.06 102.54 491.19 102.99 C 471.80 105.44 452.87 111.37 435.66 120.64 C 418.67 130.69 408.88 149.64 405.95 168.70 L 405.80 169.67 C 404.93 175.43 404.26 181.53 405.63 187.27 C 410.18 215.06 422.36 243.13 444.67 261.15 C 445.69 262.18 446.70 263.25 447.85 264.16 C 450.70 266.35 453.82 268.21 456.84 270.20 C 469.99 278.51 485.43 282.02 500.77 283.23 C 503.87 283.77 507.20 284.50 510.27 283.33 C 538.17 282.51 564.88 267.72 580.97 245.05 C 592.86 229.06 600.12 210.00 603.24 190.38 C 604.12 186.03 604.75 181.64 605.26 177.23 C 605.76 173.13 606.68 168.76 605.34 164.73 C 604.79 161.11 604.27 157.47 603.48 153.90 C 601.28 146.51 600.08 138.13 595.27 131.87 C 592.56 126.81 588.56 122.73 584.38 118.89 C 580.09 114.72 574.63 112.16 569.25 109.73 C 561.97 106.76 554.28 104.69 546.47 103.84 C 541.92 103.16 537.41 102.50 532.86 101.95 C 533.73 100.74 534.65 99.57 535.52 98.35 C 534.61 97.60 533.68 96.88 532.83 96.07 C 538.00 96.37 543.34 96.26 548.01 98.94 C 551.66 101.32 558.52 99.82 559.01 94.93 Z" />
</g>
<g id="#6c86a4ff">
<path fill="#6c86a4" opacity="1.00" d=" M 289.15 97.05 C 290.34 97.99 294.29 98.59 291.95 100.38 C 290.52 99.78 289.15 99.06 287.78 98.34 C 288.12 98.02 288.81 97.37 289.15 97.05 Z" />
</g>
<g id="#293558ff">
<path fill="#293558" opacity="1.00" d=" M 222.78 101.77 C 226.25 101.03 229.73 101.02 233.22 101.76 C 229.72 101.83 226.26 101.99 222.78 101.77 Z" />
</g>
<g id="#4a5774ff">
<path fill="#4a5774" opacity="1.00" d=" M 503.73 101.70 C 511.70 99.82 520.16 101.14 528.22 101.77 C 520.05 101.97 511.87 102.27 503.73 101.70 Z" />
</g>
<g id="#8998adff">
<path fill="#8998ad" opacity="1.00" d=" M 204.95 102.93 C 210.87 102.26 216.82 102.00 222.78 101.77 C 226.26 101.99 229.72 101.83 233.22 101.76 C 234.74 101.92 236.26 102.11 237.79 102.27 C 240.58 102.65 243.44 102.95 246.27 102.74 C 262.16 104.39 278.10 107.17 293.06 112.92 C 291.37 116.31 292.41 119.89 293.93 123.11 C 289.59 121.83 285.52 119.78 281.15 118.57 C 278.83 117.91 276.50 117.27 274.17 116.67 C 269.72 116.42 265.20 113.07 260.74 114.72 C 256.81 114.11 252.92 113.14 249.15 111.88 C 246.72 110.50 244.02 109.69 241.21 110.13 C 240.46 110.06 238.97 109.91 238.22 109.84 C 235.09 109.25 231.95 108.95 228.78 109.17 C 215.84 108.37 202.94 109.77 190.12 111.37 C 187.70 110.99 186.65 109.32 187.55 107.07 C 187.12 106.94 186.25 106.66 185.81 106.52 C 192.14 105.06 198.52 103.86 204.95 102.93 Z" />
</g>
<g id="#5c6886ff">
<path fill="#5c6886" opacity="1.00" d=" M 237.79 102.27 C 238.55 102.17 240.08 101.95 240.85 101.84 C 242.67 101.97 244.51 102.18 246.27 102.74 C 243.44 102.95 240.58 102.65 237.79 102.27 Z" />
</g>
<g id="#a0aebfff">
<path fill="#a0aebf" opacity="1.00" d=" M 491.19 102.99 C 495.37 102.57 499.54 102.10 503.73 101.70 C 511.87 102.27 520.05 101.97 528.22 101.77 C 529.76 101.87 531.31 101.92 532.86 101.95 C 537.41 102.50 541.92 103.16 546.47 103.84 C 544.90 105.91 542.73 106.63 539.95 105.99 C 537.00 106.07 534.47 107.76 531.79 108.79 C 524.78 109.08 517.73 108.66 510.79 109.78 C 509.12 109.92 507.45 110.06 505.79 110.17 C 496.94 110.38 488.22 112.23 479.75 114.65 C 477.43 115.31 475.12 115.96 472.82 116.63 C 457.16 121.30 440.89 126.40 428.11 136.98 C 417.40 145.70 413.62 159.88 410.81 172.78 C 410.16 174.11 410.19 176.28 408.19 176.09 C 408.28 173.23 408.55 170.25 405.95 168.70 C 408.88 149.64 418.67 130.69 435.66 120.64 C 452.87 111.37 471.80 105.44 491.19 102.99 Z" />
</g>
<g id="#96a3b3ff">
<path fill="#96a3b3" opacity="1.00" d=" M 546.47 103.84 C 554.28 104.69 561.97 106.76 569.25 109.73 C 568.29 111.48 567.39 113.27 566.62 115.11 C 558.44 112.23 549.88 110.32 541.22 109.74 C 538.05 109.33 534.96 108.97 531.79 108.79 C 534.47 107.76 537.00 106.07 539.95 105.99 C 542.73 106.63 544.90 105.91 546.47 103.84 Z" />
</g>
<g id="#97a3b5ff">
<path fill="#97a3b5" opacity="1.00" d=" M 149.01 131.03 C 157.15 118.14 171.01 109.55 185.81 106.52 C 186.25 106.66 187.12 106.94 187.55 107.07 C 186.65 109.32 187.70 110.99 190.12 111.37 C 174.30 113.51 160.47 123.68 151.56 136.61 C 146.65 143.29 145.99 151.83 144.76 159.76 C 143.91 171.15 143.03 182.92 144.63 194.27 C 145.15 197.39 145.87 200.48 146.21 203.63 C 145.80 204.03 144.98 204.83 144.57 205.22 C 142.58 197.61 140.56 189.95 139.81 182.09 C 141.23 179.04 140.98 176.65 139.06 174.93 C 139.09 172.29 139.14 169.66 139.23 167.03 C 140.74 164.69 140.90 162.33 139.70 159.95 C 140.74 149.80 143.08 139.53 149.01 131.03 Z" />
</g>
<g id="#fbf2e3ff">
<path fill="#fbf2e3" opacity="1.00" d=" M 190.12 111.37 C 202.94 109.77 215.84 108.37 228.78 109.17 C 231.89 109.70 235.06 110.03 238.22 109.84 C 238.97 109.91 240.46 110.06 241.21 110.13 C 238.04 110.62 234.86 110.91 231.74 111.65 C 216.39 113.80 201.00 119.36 189.53 130.11 C 176.17 141.86 168.65 159.28 166.73 176.77 C 165.78 181.87 165.78 187.12 166.71 192.23 C 168.48 208.91 176.95 224.17 188.12 236.41 C 199.79 248.60 216.22 255.23 232.77 257.26 C 239.18 257.94 245.90 258.91 252.27 257.37 C 262.20 255.76 272.18 253.16 281.05 248.31 C 301.16 237.16 315.03 216.11 317.26 193.24 C 318.22 187.80 318.36 182.17 317.37 176.73 C 315.37 152.57 298.70 131.84 277.62 120.99 C 278.65 119.99 279.77 119.06 281.15 118.57 C 285.52 119.78 289.59 121.83 293.93 123.11 C 299.83 125.13 304.90 128.76 310.22 131.91 C 314.49 135.91 318.97 139.87 321.87 145.02 C 325.82 156.25 328.56 167.86 331.83 179.29 C 331.94 179.66 332.17 180.39 332.28 180.76 C 332.12 185.24 332.11 189.74 332.25 194.23 C 331.54 201.61 329.52 208.76 327.64 215.90 C 319.12 241.99 298.68 263.88 272.94 273.52 C 254.76 280.08 234.50 282.62 215.68 277.37 C 203.29 274.81 191.86 269.10 180.82 263.12 C 168.31 253.62 159.59 240.20 152.96 226.14 C 151.75 218.38 148.21 211.21 146.21 203.63 C 145.87 200.48 145.15 197.39 144.63 194.27 C 145.16 182.77 145.19 171.26 144.76 159.76 C 145.99 151.83 146.65 143.29 151.56 136.61 C 160.47 123.68 174.30 113.51 190.12 111.37 Z" />
<path fill="#fbf2e3" opacity="1.00" d=" M 505.79 110.17 C 507.45 110.06 509.12 109.92 510.79 109.78 C 520.92 110.26 531.08 110.01 541.22 109.74 C 549.88 110.32 558.44 112.23 566.62 115.11 C 571.55 117.78 576.59 120.34 580.80 124.13 C 582.31 125.81 583.89 127.42 585.60 128.90 C 591.95 136.37 595.17 145.91 597.71 155.23 C 598.37 158.72 598.84 162.24 599.27 165.77 C 599.07 174.26 598.60 182.79 599.32 191.27 C 596.70 210.03 589.77 228.25 578.92 243.83 C 563.76 263.91 540.11 276.47 515.27 279.37 C 508.76 278.99 502.26 278.86 495.77 279.24 C 482.99 278.34 470.79 273.98 459.20 268.78 C 456.44 267.25 453.79 265.55 451.13 263.87 C 449.34 262.62 447.57 261.34 445.89 259.95 C 423.23 241.19 411.41 211.23 411.17 182.24 C 416.30 173.31 416.38 162.55 420.16 153.12 C 422.89 147.79 426.08 142.65 428.11 136.98 C 440.89 126.40 457.16 121.30 472.82 116.63 C 473.43 116.96 474.67 117.60 475.29 117.92 C 457.15 124.41 441.71 138.26 433.68 155.80 C 427.48 170.62 426.07 187.42 429.92 203.03 C 434.22 220.72 445.59 236.29 460.66 246.36 C 470.37 252.40 481.48 255.81 492.77 257.26 C 499.17 257.93 505.90 258.93 512.27 257.37 C 527.81 255.58 543.09 249.72 555.00 239.47 C 568.95 227.15 578.46 209.86 580.26 191.23 C 581.23 186.13 581.20 180.87 580.29 175.77 C 579.48 170.07 578.60 164.23 576.20 158.95 C 572.81 144.60 562.15 133.02 550.62 124.43 C 539.36 117.32 526.41 113.33 513.25 111.64 C 510.79 111.03 508.22 110.63 505.79 110.17 Z" />
</g>
<g id="#bfc7caff">
<path fill="#bfc7ca" opacity="1.00" d=" M 228.78 109.17 C 231.95 108.95 235.09 109.25 238.22 109.84 C 235.06 110.03 231.89 109.70 228.78 109.17 Z" />
</g>
<g id="#cdd3d1ff">
<path fill="#cdd3d1" opacity="1.00" d=" M 510.79 109.78 C 517.73 108.66 524.78 109.08 531.79 108.79 C 534.96 108.97 538.05 109.33 541.22 109.74 C 531.08 110.01 520.92 110.26 510.79 109.78 Z" />
</g>
<g id="#a5b7c4ff">
<path fill="#a5b7c4" opacity="1.00" d=" M 241.21 110.13 C 244.02 109.69 246.72 110.50 249.15 111.88 C 243.34 111.96 237.54 111.95 231.74 111.65 C 234.86 110.91 238.04 110.62 241.21 110.13 Z" />
</g>
<g id="#bcc7cfff">
<path fill="#bcc7cf" opacity="1.00" d=" M 479.75 114.65 C 488.22 112.23 496.94 110.38 505.79 110.17 C 508.22 110.63 510.79 111.03 513.25 111.64 C 502.36 111.38 491.49 112.44 481.15 115.89 C 480.80 115.58 480.10 114.96 479.75 114.65 Z" />
</g>
<g id="#8593a8ff">
<path fill="#8593a8" opacity="1.00" d=" M 569.25 109.73 C 574.63 112.16 580.09 114.72 584.38 118.89 C 583.64 120.92 582.57 122.84 580.80 124.13 C 576.59 120.34 571.55 117.78 566.62 115.11 C 567.39 113.27 568.29 111.48 569.25 109.73 Z" />
</g>
<g id="#4982a2ff">
<path fill="#4982a2" opacity="1.00" d=" M 189.53 130.11 C 201.00 119.36 216.39 113.80 231.74 111.65 C 237.54 111.95 243.34 111.96 249.15 111.88 C 252.92 113.14 256.81 114.11 260.74 114.72 C 264.08 115.68 267.38 116.76 270.68 117.87 C 272.96 118.96 275.30 119.94 277.62 120.99 C 298.70 131.84 315.37 152.57 317.37 176.73 C 317.10 182.22 316.78 187.75 317.26 193.24 C 315.03 216.11 301.16 237.16 281.05 248.31 C 274.45 246.04 270.32 240.12 264.91 236.10 C 286.54 230.18 301.63 209.17 303.26 187.23 C 303.75 184.39 304.36 181.49 303.37 178.72 C 302.84 175.29 302.43 171.81 301.10 168.58 C 301.44 167.42 301.83 166.28 302.21 165.14 C 303.90 163.10 304.33 159.63 302.23 157.84 C 300.41 148.48 291.38 141.70 281.82 142.75 C 282.35 142.50 283.41 142.00 283.94 141.75 C 275.09 133.83 263.96 128.60 252.24 126.74 C 247.81 126.06 243.08 125.23 238.72 126.67 C 227.40 127.88 217.40 133.82 208.99 141.19 C 208.00 138.42 209.14 133.44 207.10 132.16 C 203.08 132.33 199.41 133.58 196.53 136.41 C 192.91 137.40 192.96 143.14 188.94 143.05 C 188.82 139.60 192.09 137.16 194.69 135.41 C 197.74 129.47 192.43 130.67 189.53 130.11 Z" />
</g>
<g id="#4982a1ff">
<path fill="#4982a1" opacity="1.00" d=" M 481.15 115.89 C 491.49 112.44 502.36 111.38 513.25 111.64 C 526.41 113.33 539.36 117.32 550.62 124.43 C 562.15 133.02 572.81 144.60 576.20 158.95 C 570.86 151.80 568.43 142.55 561.31 136.69 C 556.54 131.70 550.44 128.24 545.03 124.04 C 542.85 121.73 541.49 125.27 540.22 126.59 C 542.21 128.37 544.97 129.74 545.42 132.65 C 546.45 136.77 550.03 140.13 550.19 144.42 C 547.96 142.49 546.00 140.10 543.15 139.07 C 542.14 140.21 541.16 141.42 540.91 142.96 C 532.73 136.23 523.41 130.50 513.03 127.99 C 485.69 121.16 456.05 139.48 448.11 166.09 C 447.16 169.27 446.40 172.51 445.80 175.77 C 445.18 179.56 444.81 183.38 444.68 187.22 C 439.76 177.27 436.43 166.54 433.68 155.80 C 441.71 138.26 457.15 124.41 475.29 117.92 C 477.26 117.31 479.16 116.49 481.15 115.89 Z" />
</g>
<g id="#8494aaff">
<path fill="#8494aa" opacity="1.00" d=" M 293.06 112.92 C 299.20 115.19 305.03 118.33 310.44 122.01 C 309.02 122.52 307.56 122.90 306.13 123.35 C 304.52 127.37 310.84 127.91 310.22 131.91 C 304.90 128.76 299.83 125.13 293.93 123.11 C 292.41 119.89 291.37 116.31 293.06 112.92 Z" />
</g>
<g id="#c1cbd2ff">
<path fill="#c1cbd2" opacity="1.00" d=" M 260.74 114.72 C 265.20 113.07 269.72 116.42 274.17 116.67 C 272.99 117.02 271.82 117.42 270.68 117.87 C 267.38 116.76 264.08 115.68 260.74 114.72 Z" />
</g>
<g id="#d3d9dbff">
<path fill="#d3d9db" opacity="1.00" d=" M 472.82 116.63 C 475.12 115.96 477.43 115.31 479.75 114.65 C 480.10 114.96 480.80 115.58 481.15 115.89 C 479.16 116.49 477.26 117.31 475.29 117.92 C 474.67 117.60 473.43 116.96 472.82 116.63 Z" />
</g>
<g id="#e5e6e2ff">
<path fill="#e5e6e2" opacity="1.00" d=" M 270.68 117.87 C 271.82 117.42 272.99 117.02 274.17 116.67 C 276.50 117.27 278.83 117.91 281.15 118.57 C 279.77 119.06 278.65 119.99 277.62 120.99 C 275.30 119.94 272.96 118.96 270.68 117.87 Z" />
</g>
<g id="#7c8aa1ff">
<path fill="#7c8aa1" opacity="1.00" d=" M 584.38 118.89 C 588.56 122.73 592.56 126.81 595.27 131.87 C 591.69 131.80 589.27 126.17 585.60 128.90 C 583.89 127.42 582.31 125.81 580.80 124.13 C 582.57 122.84 583.64 120.92 584.38 118.89 Z" />
</g>
<g id="#7c8da4ff">
<path fill="#7c8da4" opacity="1.00" d=" M 310.44 122.01 C 320.54 128.58 328.58 138.47 332.80 149.76 C 331.64 153.19 332.39 156.60 333.00 159.98 C 331.89 159.79 330.78 159.57 329.69 159.30 C 327.75 154.22 326.02 148.81 321.87 145.02 C 318.97 139.87 314.49 135.91 310.22 131.91 C 310.84 127.91 304.52 127.37 306.13 123.35 C 307.56 122.90 309.02 122.52 310.44 122.01 Z" />
</g>
<g id="#4783a4ff">
<path fill="#4783a4" opacity="1.00" d=" M 540.22 126.59 C 541.49 125.27 542.85 121.73 545.03 124.04 C 550.44 128.24 556.54 131.70 561.31 136.69 C 568.43 142.55 570.86 151.80 576.20 158.95 C 578.60 164.23 579.48 170.07 580.29 175.77 C 580.11 180.91 579.84 186.09 580.26 191.23 C 578.46 209.86 568.95 227.15 555.00 239.47 C 554.81 239.10 554.44 238.37 554.25 238.01 C 556.81 232.33 559.22 226.55 562.20 221.08 C 563.59 219.08 563.28 216.62 563.47 214.34 C 568.79 198.02 569.88 179.82 563.50 163.62 C 560.75 156.21 555.60 150.05 550.19 144.42 C 550.03 140.13 546.45 136.77 545.42 132.65 C 544.97 129.74 542.21 128.37 540.22 126.59 Z" />
</g>
<g id="#365c7cff">
<path fill="#365c7c" opacity="1.00" d=" M 238.72 126.67 C 243.08 125.23 247.81 126.06 252.24 126.74 C 247.73 126.86 243.22 126.91 238.72 126.67 Z" />
</g>
<g id="#141e3fff">
<path fill="#141e3f" opacity="1.00" d=" M 208.99 141.19 C 217.40 133.82 227.40 127.88 238.72 126.67 C 243.22 126.91 247.73 126.86 252.24 126.74 C 263.96 128.60 275.09 133.83 283.94 141.75 C 283.41 142.00 282.35 142.50 281.82 142.75 C 277.48 144.29 272.56 145.93 270.13 150.16 C 264.52 158.20 266.12 170.95 274.95 176.06 C 279.70 179.26 286.41 180.08 291.67 177.63 C 295.68 175.71 298.58 172.14 301.10 168.58 C 302.43 171.81 302.84 175.29 303.37 178.72 C 303.29 181.55 303.26 184.39 303.26 187.23 C 301.63 209.17 286.54 230.18 264.91 236.10 C 261.37 236.91 257.86 237.85 254.27 238.37 C 249.77 238.11 245.27 238.10 240.77 238.26 C 225.08 236.78 209.72 228.08 201.74 214.27 C 200.60 212.44 199.30 210.74 198.06 208.99 C 196.25 202.09 193.60 195.38 192.63 188.28 C 192.78 184.10 192.82 179.93 192.74 175.76 C 194.05 167.91 195.69 159.87 200.07 153.07 C 202.84 148.97 205.89 145.05 208.99 141.19 Z" />
<path fill="#141e3f" opacity="1.00" d=" M 448.11 166.09 C 456.05 139.48 485.69 121.16 513.03 127.99 C 523.41 130.50 532.73 136.23 540.91 142.96 C 541.22 143.77 541.31 144.59 541.17 145.44 C 539.14 144.56 537.17 143.60 535.16 142.70 C 532.90 141.19 529.62 140.60 527.85 142.81 C 520.70 145.33 513.34 151.74 513.98 160.01 C 511.64 172.73 528.11 183.44 539.00 176.97 C 544.08 175.01 547.43 170.19 549.26 165.23 C 549.89 162.11 549.88 158.92 550.26 155.77 C 552.94 161.76 554.31 168.27 555.37 174.72 C 555.09 179.55 554.95 184.41 555.26 189.24 C 554.48 195.04 552.89 200.72 550.63 206.11 C 543.40 222.86 527.01 234.90 509.28 238.40 C 504.43 238.12 499.61 237.99 494.78 238.14 C 480.43 236.34 465.73 229.92 457.34 217.71 C 451.38 209.27 447.57 199.40 445.75 189.26 C 445.85 184.75 445.87 180.26 445.80 175.77 C 446.40 172.51 447.16 169.27 448.11 166.09 Z" />
</g>
<g id="#75839aff">
<path fill="#75839a" opacity="1.00" d=" M 585.60 128.90 C 589.27 126.17 591.69 131.80 595.27 131.87 C 600.08 138.13 601.28 146.51 603.48 153.90 C 601.06 156.61 601.07 150.04 598.14 150.93 C 597.95 152.36 597.80 153.79 597.71 155.23 C 595.17 145.91 591.95 136.37 585.60 128.90 Z" />
</g>
<g id="#4985a5ff">
<path fill="#4985a5" opacity="1.00" d=" M 166.73 176.77 C 168.65 159.28 176.17 141.86 189.53 130.11 C 192.43 130.67 197.74 129.47 194.69 135.41 C 192.09 137.16 188.82 139.60 188.94 143.05 C 192.96 143.14 192.91 137.40 196.53 136.41 C 199.41 133.58 203.08 132.33 207.10 132.16 C 190.00 144.36 182.00 165.43 180.76 185.77 C 179.95 189.55 179.86 193.47 180.64 197.27 C 180.62 205.44 183.06 213.28 184.63 221.22 C 184.97 226.38 190.52 231.35 188.12 236.41 C 176.95 224.17 168.48 208.91 166.71 192.23 C 166.85 187.07 167.17 181.91 166.73 176.77 Z" />
</g>
<g id="#87bacfff">
<path fill="#87bacf" opacity="1.00" d=" M 207.10 132.16 C 209.14 133.44 208.00 138.42 208.99 141.19 C 205.89 145.05 202.84 148.97 200.07 153.07 C 195.69 159.87 194.05 167.91 192.74 175.76 C 192.09 179.85 191.39 184.22 192.63 188.28 C 193.60 195.38 196.25 202.09 198.06 208.99 C 192.23 206.11 189.48 214.47 185.31 217.13 C 186.48 218.81 187.00 220.34 184.63 221.22 C 183.06 213.28 180.62 205.44 180.64 197.27 C 180.87 193.43 181.09 189.60 180.76 185.77 C 182.00 165.43 190.00 144.36 207.10 132.16 Z" />
</g>
<g id="#cfd7dbff">
<path fill="#cfd7db" opacity="1.00" d=" M 410.81 172.78 C 413.62 159.88 417.40 145.70 428.11 136.98 C 426.08 142.65 422.89 147.79 420.16 153.12 C 416.38 162.55 416.30 173.31 411.17 182.24 C 411.04 179.07 410.95 175.94 410.81 172.78 Z" />
</g>
<g id="#5387a4ff">
<path fill="#5387a4" opacity="1.00" d=" M 543.15 139.07 C 546.00 140.10 547.96 142.49 550.19 144.42 C 555.60 150.05 560.75 156.21 563.50 163.62 C 569.88 179.82 568.79 198.02 563.47 214.34 C 563.28 216.62 563.59 219.08 562.20 221.08 C 562.57 217.08 559.82 221.05 558.33 221.96 C 557.49 219.46 553.89 218.37 555.08 215.29 C 555.80 215.14 557.22 214.85 557.93 214.71 C 556.88 211.93 556.36 209.04 555.89 206.13 C 554.12 206.11 552.31 206.90 550.63 206.11 C 552.89 200.72 554.48 195.04 555.26 189.24 C 555.90 184.47 556.74 179.45 555.37 174.72 C 554.31 168.27 552.94 161.76 550.26 155.77 C 549.88 158.92 549.89 162.11 549.26 165.23 C 550.61 157.47 547.13 150.24 541.17 145.44 C 541.31 144.59 541.22 143.77 540.91 142.96 C 541.16 141.42 542.14 140.21 543.15 139.07 Z" />
</g>
<g id="#334669ff">
<path fill="#334669" opacity="1.00" d=" M 393.01 150.26 C 396.80 147.57 398.51 142.28 402.99 139.90 C 401.53 144.36 399.89 148.79 397.85 153.01 C 396.90 152.74 395.97 152.42 395.07 152.04 C 394.39 151.44 393.70 150.85 393.01 150.26 Z" />
</g>
<g id="#555b6fff">
<path fill="#555b6f" opacity="1.00" d=" M 527.85 142.81 C 529.62 140.60 532.90 141.19 535.16 142.70 C 533.33 142.72 529.68 142.78 527.85 142.81 Z" />
</g>
<g id="#fafbfcff">
<path fill="#fafbfc" opacity="1.00" d=" M 270.13 150.16 C 272.56 145.93 277.48 144.29 281.82 142.75 C 291.38 141.70 300.41 148.48 302.23 157.84 C 302.23 159.67 302.22 163.32 302.21 165.14 C 301.83 166.28 301.44 167.42 301.10 168.58 C 298.58 172.14 295.68 175.71 291.67 177.63 C 286.41 180.08 279.70 179.26 274.95 176.06 C 266.12 170.95 264.52 158.20 270.13 150.16 Z" />
</g>
<g id="#fbfbfcff">
<path fill="#fbfbfc" opacity="1.00" d=" M 513.98 160.01 C 513.34 151.74 520.70 145.33 527.85 142.81 C 529.68 142.78 533.33 142.72 535.16 142.70 C 537.17 143.60 539.14 144.56 541.17 145.44 C 547.13 150.24 550.61 157.47 549.26 165.23 C 547.43 170.19 544.08 175.01 539.00 176.97 C 528.11 183.44 511.64 172.73 513.98 160.01 Z" />
</g>
<g id="#99a9b9ff">
<path fill="#99a9b9" opacity="1.00" d=" M 321.87 145.02 C 326.02 148.81 327.75 154.22 329.69 159.30 C 330.72 165.84 334.96 172.86 331.83 179.29 C 328.56 167.86 325.82 156.25 321.87 145.02 Z" />
</g>
<g id="#8390a5ff">
<path fill="#8390a5" opacity="1.00" d=" M 333.00 159.98 C 332.39 156.60 331.64 153.19 332.80 149.76 C 335.42 156.10 336.66 162.87 337.15 169.69 C 337.00 175.54 337.05 181.38 337.26 187.23 C 336.11 197.73 334.22 208.24 330.44 218.15 C 330.19 216.64 328.88 216.30 327.64 215.90 C 329.52 208.76 331.54 201.61 332.25 194.23 C 332.71 189.82 333.96 185.05 332.28 180.76 C 332.17 180.39 331.94 179.66 331.83 179.29 C 334.96 172.86 330.72 165.84 329.69 159.30 C 330.78 159.57 331.89 159.79 333.00 159.98 Z" />
</g>
<g id="#65758fff">
<path fill="#65758f" opacity="1.00" d=" M 598.14 150.93 C 601.07 150.04 601.06 156.61 603.48 153.90 C 604.27 157.47 604.79 161.11 605.34 164.73 C 605.19 168.89 605.17 173.06 605.26 177.23 C 604.75 181.64 604.12 186.03 603.24 190.38 C 602.23 189.19 601.25 187.99 600.22 186.83 C 599.91 179.81 600.32 172.74 599.27 165.77 C 598.84 162.24 598.37 158.72 597.71 155.23 C 597.80 153.79 597.95 152.36 598.14 150.93 Z" />
</g>
<g id="#4b5775ff">
<path fill="#4b5775" opacity="1.00" d=" M 364.73 152.64 C 368.77 151.34 373.15 152.05 377.24 152.74 C 373.06 152.81 368.89 152.78 364.73 152.64 Z" />
</g>
<g id="#9cadc1ff">
<path fill="#9cadc1" opacity="1.00" d=" M 348.05 158.17 C 352.98 154.84 359.13 154.25 364.73 152.64 C 368.89 152.78 373.06 152.81 377.24 152.74 C 381.01 153.40 384.66 154.61 388.28 155.87 C 390.02 157.98 393.86 159.59 392.78 162.87 C 391.71 167.56 390.81 172.29 389.78 177.00 C 383.30 175.36 377.03 171.79 370.11 172.16 C 363.57 173.37 358.11 177.43 352.11 180.00 C 351.59 172.59 348.56 165.55 348.05 158.17 Z" />
</g>
<g id="#8abbd1ff">
<path fill="#8abbd1" opacity="1.00" d=" M 429.92 203.03 C 426.07 187.42 427.48 170.62 433.68 155.80 C 436.43 166.54 439.76 177.27 444.68 187.22 C 444.95 187.73 445.48 188.75 445.75 189.26 C 447.57 199.40 451.38 209.27 457.34 217.71 C 465.73 229.92 480.43 236.34 494.78 238.14 C 495.07 238.39 495.66 238.88 495.95 239.12 C 495.98 240.40 496.04 241.69 496.14 242.97 C 518.60 244.12 540.58 235.27 558.33 221.96 C 559.82 221.05 562.57 217.08 562.20 221.08 C 559.22 226.55 556.81 232.33 554.25 238.01 C 554.44 238.37 554.81 239.10 555.00 239.47 C 543.09 249.72 527.81 255.58 512.27 257.37 C 505.76 256.99 499.26 256.85 492.77 257.26 C 481.48 255.81 470.37 252.40 460.66 246.36 C 445.59 236.29 434.22 220.72 429.92 203.03 Z" />
</g>
<g id="#96b9caff">
<path fill="#96b9ca" opacity="1.00" d=" M 302.23 157.84 C 304.33 159.63 303.90 163.10 302.21 165.14 C 302.22 163.32 302.23 159.67 302.23 157.84 Z" />
</g>
<g id="#69778eff">
<path fill="#69778e" opacity="1.00" d=" M 139.23 167.03 C 138.14 164.68 138.30 162.32 139.70 159.95 C 140.90 162.33 140.74 164.69 139.23 167.03 Z" />
</g>
<g id="#ced2d0ff">
<path fill="#ced2d0" opacity="1.00" d=" M 144.63 194.27 C 143.03 182.92 143.91 171.15 144.76 159.76 C 145.19 171.26 145.16 182.77 144.63 194.27 Z" />
</g>
<g id="#2c2e3361">
<path fill="#2c2e33" opacity="0.38" d=" M 615.36 160.73 C 616.40 167.84 616.34 175.14 615.24 182.24 C 614.73 175.08 615.01 167.89 615.36 160.73 Z" />
</g>
<g id="#2b2d345a">
<path fill="#2b2d34" opacity="0.35" d=" M 129.74 183.23 C 128.68 176.47 128.60 169.51 129.76 162.76 C 130.21 169.58 129.94 176.41 129.74 183.23 Z" />
</g>
<g id="#273456ff">
<path fill="#273456" opacity="1.00" d=" M 605.34 164.73 C 606.68 168.76 605.76 173.13 605.26 177.23 C 605.17 173.06 605.19 168.89 605.34 164.73 Z" />
</g>
<g id="#cacbc9ff">
<path fill="#cacbc9" opacity="1.00" d=" M 599.27 165.77 C 600.32 172.74 599.91 179.81 600.22 186.83 C 599.97 188.32 599.69 189.80 599.32 191.27 C 598.60 182.79 599.07 174.26 599.27 165.77 Z" />
</g>
<g id="#a8b1c1ff">
<path fill="#a8b1c1" opacity="1.00" d=" M 405.95 168.70 C 408.55 170.25 408.28 173.23 408.19 176.09 C 410.19 176.28 410.16 174.11 410.81 172.78 C 410.95 175.94 411.04 179.07 411.17 182.24 C 411.41 211.23 423.23 241.19 445.89 259.95 C 445.59 260.25 444.98 260.85 444.67 261.15 C 422.36 243.13 410.18 215.06 405.63 187.27 C 405.98 181.41 405.95 175.53 405.80 169.67 L 405.95 168.70 Z" />
</g>
<g id="#384464ff">
<path fill="#384464" opacity="1.00" d=" M 337.15 169.69 L 337.97 170.12 C 338.02 175.83 338.21 181.57 337.26 187.23 C 337.05 181.38 337.00 175.54 337.15 169.69 Z" />
</g>
<g id="#68768eff">
<path fill="#68768e" opacity="1.00" d=" M 405.63 187.27 C 404.26 181.53 404.93 175.43 405.80 169.67 C 405.95 175.53 405.98 181.41 405.63 187.27 Z" />
<path fill="#68768e" opacity="1.00" d=" M 139.06 174.93 C 140.98 176.65 141.23 179.04 139.81 182.09 C 138.15 180.16 137.89 177.77 139.06 174.93 Z" />
</g>
<g id="#324d6dff">
<path fill="#324d6d" opacity="1.00" d=" M 555.37 174.72 C 556.74 179.45 555.90 184.47 555.26 189.24 C 554.95 184.41 555.09 179.55 555.37 174.72 Z" />
</g>
<g id="#688ba8ff">
<path fill="#688ba8" opacity="1.00" d=" M 192.63 188.28 C 191.39 184.22 192.09 179.85 192.74 175.76 C 192.82 179.93 192.78 184.10 192.63 188.28 Z" />
</g>
<g id="#32587bff">
<path fill="#32587b" opacity="1.00" d=" M 444.68 187.22 C 444.81 183.38 445.18 179.56 445.80 175.77 C 445.87 180.26 445.85 184.75 445.75 189.26 C 445.48 188.75 444.95 187.73 444.68 187.22 Z" />
</g>
<g id="#adc6c8ff">
<path fill="#adc6c8" opacity="1.00" d=" M 580.29 175.77 C 581.20 180.87 581.23 186.13 580.26 191.23 C 579.84 186.09 580.11 180.91 580.29 175.77 Z" />
</g>
<g id="#acc6cbff">
<path fill="#acc6cb" opacity="1.00" d=" M 166.71 192.23 C 165.78 187.12 165.78 181.87 166.73 176.77 C 167.17 181.91 166.85 187.07 166.71 192.23 Z" />
</g>
<g id="#9fb8baff">
<path fill="#9fb8ba" opacity="1.00" d=" M 317.37 176.73 C 318.36 182.17 318.22 187.80 317.26 193.24 C 316.78 187.75 317.10 182.22 317.37 176.73 Z" />
</g>
<g id="#d09d4eff">
<path fill="#d09d4e" opacity="1.00" d=" M 368.81 177.57 C 369.14 177.45 369.81 177.20 370.15 177.08 C 379.31 177.72 388.30 181.64 394.72 188.27 C 396.58 191.84 396.75 196.02 397.13 199.95 C 396.03 198.61 396.46 195.72 394.14 195.96 C 393.96 197.51 393.60 200.62 393.41 202.17 C 392.33 197.10 387.43 194.42 384.26 190.74 C 379.37 186.60 375.66 180.55 369.75 177.87 L 368.81 177.57 Z" />
</g>
<g id="#eaa73fff">
<path fill="#eaa73f" opacity="1.00" d=" M 350.26 189.28 C 356.02 184.75 361.94 180.31 368.81 177.57 L 369.75 177.87 C 368.57 183.86 369.13 189.99 369.84 196.00 C 370.32 211.92 369.74 227.86 370.10 243.78 C 368.29 250.82 369.35 258.08 369.85 265.20 C 365.95 249.12 360.66 233.51 355.43 217.83 C 353.40 211.37 352.09 204.29 346.57 199.80 C 347.59 196.27 346.98 191.68 350.26 189.28 Z" />
</g>
<g id="#fac65fff">
<path fill="#fac65f" opacity="1.00" d=" M 369.75 177.87 C 375.66 180.55 379.37 186.60 384.26 190.74 C 387.43 194.42 392.33 197.10 393.41 202.17 C 393.29 203.34 393.19 204.52 393.12 205.70 C 392.55 206.92 391.95 208.13 391.51 209.41 C 387.09 227.73 382.29 245.94 377.87 264.26 C 377.37 263.39 376.93 262.50 376.54 261.59 C 376.10 255.13 372.70 249.54 370.10 243.78 C 369.74 227.86 370.32 211.92 369.84 196.00 C 369.13 189.99 368.57 183.86 369.75 177.87 Z" />
</g>
<g id="#426989ff">
<path fill="#426989" opacity="1.00" d=" M 303.37 178.72 C 304.36 181.49 303.75 184.39 303.26 187.23 C 303.26 184.39 303.29 181.55 303.37 178.72 Z" />
</g>
<g id="#bbc3c6ff">
<path fill="#bbc3c6" opacity="1.00" d=" M 332.28 180.76 C 333.96 185.05 332.71 189.82 332.25 194.23 C 332.11 189.74 332.12 185.24 332.28 180.76 Z" />
</g>
<g id="#6098b5ff">
<path fill="#6098b5" opacity="1.00" d=" M 180.64 197.27 C 179.86 193.47 179.95 189.55 180.76 185.77 C 181.09 189.60 180.87 193.43 180.64 197.27 Z" />
</g>
<g id="#667087ff">
<path fill="#667087" opacity="1.00" d=" M 600.22 186.83 C 601.25 187.99 602.23 189.19 603.24 190.38 C 600.12 210.00 592.86 229.06 580.97 245.05 C 580.46 244.75 579.43 244.13 578.92 243.83 C 589.77 228.25 596.70 210.03 599.32 191.27 C 599.69 189.80 599.97 188.32 600.22 186.83 Z" />
</g>
<g id="#d29338ff">
<path fill="#d29338" opacity="1.00" d=" M 394.14 195.96 C 396.46 195.72 396.03 198.61 397.13 199.95 C 400.00 210.84 403.34 221.68 408.01 231.99 C 409.86 235.22 408.39 238.69 406.23 241.24 C 398.02 230.99 398.03 217.29 393.12 205.70 C 393.19 204.52 393.29 203.34 393.41 202.17 C 393.60 200.62 393.96 197.51 394.14 195.96 Z" />
</g>
<g id="#e29b3eff">
<path fill="#e29b3e" opacity="1.00" d=" M 335.40 235.35 C 340.50 223.98 343.68 211.89 346.57 199.80 C 352.09 204.29 353.40 211.37 355.43 217.83 C 349.69 225.36 340.32 230.33 336.61 239.15 C 335.72 238.04 334.33 236.84 335.40 235.35 Z" />
</g>
<g id="#a3abb7ff">
<path fill="#a3abb7" opacity="1.00" d=" M 144.57 205.22 C 144.98 204.83 145.80 204.03 146.21 203.63 C 148.21 211.21 151.75 218.38 152.96 226.14 C 148.85 219.81 147.10 212.25 144.57 205.22 Z" />
</g>
<g id="#f6b031ff">
<path fill="#f6b031" opacity="1.00" d=" M 393.12 205.70 C 398.03 217.29 398.02 230.99 406.23 241.24 C 397.58 256.04 387.50 269.96 378.82 284.74 C 376.35 287.56 374.67 290.94 372.75 294.12 C 371.99 293.52 371.31 292.83 370.71 292.07 C 374.16 288.83 371.38 284.19 373.30 280.22 C 375.10 275.00 377.32 269.81 377.87 264.26 C 382.29 245.94 387.09 227.73 391.51 209.41 C 391.95 208.13 392.55 206.92 393.12 205.70 Z" />
</g>
<g id="#5083a1ff">
<path fill="#5083a1" opacity="1.00" d=" M 509.28 238.40 C 527.01 234.90 543.40 222.86 550.63 206.11 C 552.31 206.90 554.12 206.11 555.89 206.13 C 556.36 209.04 556.88 211.93 557.93 214.71 C 557.22 214.85 555.80 215.14 555.08 215.29 C 553.89 218.37 557.49 219.46 558.33 221.96 C 540.58 235.27 518.60 244.12 496.14 242.97 C 496.04 241.69 495.98 240.40 495.95 239.12 C 500.35 238.80 504.93 239.47 509.28 238.40 Z" />
</g>
<g id="#8bbcd1ff">
<path fill="#8bbcd1" opacity="1.00" d=" M 185.31 217.13 C 189.48 214.47 192.23 206.11 198.06 208.99 C 199.30 210.74 200.60 212.44 201.74 214.27 C 209.72 228.08 225.08 236.78 240.77 238.26 C 245.20 238.81 249.89 239.73 254.27 238.37 C 257.86 237.85 261.37 236.91 264.91 236.10 C 270.32 240.12 274.45 246.04 281.05 248.31 C 272.18 253.16 262.20 255.76 252.27 257.37 C 245.77 256.99 239.26 256.85 232.77 257.26 C 216.22 255.23 199.79 248.60 188.12 236.41 C 190.52 231.35 184.97 226.38 184.63 221.22 C 187.00 220.34 186.48 218.81 185.31 217.13 Z" />
</g>
<g id="#969dadff">
<path fill="#969dad" opacity="1.00" d=" M 272.94 273.52 C 298.68 263.88 319.12 241.99 327.64 215.90 C 328.88 216.30 330.19 216.64 330.44 218.15 C 325.51 231.25 317.91 243.21 308.77 253.78 C 298.94 263.92 286.93 271.84 273.97 277.40 C 273.56 276.12 273.30 274.81 272.94 273.52 Z" />
</g>
<g id="#e59c3aff">
<path fill="#e59c3a" opacity="1.00" d=" M 355.43 217.83 C 360.66 233.51 365.95 249.12 369.85 265.20 C 370.73 270.26 371.53 275.37 373.30 280.22 C 371.38 284.19 374.16 288.83 370.71 292.07 C 359.87 275.18 349.56 257.91 338.08 241.45 C 337.60 240.67 337.12 239.90 336.61 239.15 C 340.32 230.33 349.69 225.36 355.43 217.83 Z" />
</g>
<g id="#567593ff">
<path fill="#567593" opacity="1.00" d=" M 240.77 238.26 C 245.27 238.10 249.77 238.11 254.27 238.37 C 249.89 239.73 245.20 238.81 240.77 238.26 Z" />
</g>
<g id="#2c4c6dff">
<path fill="#2c4c6d" opacity="1.00" d=" M 494.78 238.14 C 499.61 237.99 504.43 238.12 509.28 238.40 C 504.93 239.47 500.35 238.80 495.95 239.12 C 495.66 238.88 495.07 238.39 494.78 238.14 Z" />
</g>
<g id="#d8923fff">
<path fill="#d8923f" opacity="1.00" d=" M 332.20 242.10 C 335.41 243.95 336.53 248.41 338.91 251.30 C 349.26 267.58 359.55 283.90 369.60 300.37 C 370.27 301.65 371.29 302.78 372.73 303.19 C 372.41 308.26 371.30 313.22 370.78 318.26 C 361.86 306.20 353.43 293.75 343.86 282.19 C 338.64 271.83 330.92 262.96 325.18 252.88 C 327.66 249.38 329.80 245.65 332.20 242.10 Z" />
</g>
<g id="#1d1f35ff">
<path fill="#1d1f35" opacity="1.00" d=" M 338.91 251.30 C 344.35 250.23 336.03 244.50 338.08 241.45 C 349.56 257.91 359.87 275.18 370.71 292.07 C 371.31 292.83 371.99 293.52 372.75 294.12 C 374.67 290.94 376.35 287.56 378.82 284.74 C 378.63 286.86 378.21 288.95 378.02 291.07 C 380.95 290.44 380.70 285.72 384.26 285.12 C 380.78 291.36 376.98 297.45 372.73 303.19 C 371.29 302.78 370.27 301.65 369.60 300.37 C 359.55 283.90 349.26 267.58 338.91 251.30 Z" />
</g>
<g id="#ce943fff">
<path fill="#ce943f" opacity="1.00" d=" M 408.19 247.86 C 409.83 246.04 410.06 242.27 412.80 242.03 C 415.60 246.79 418.53 251.49 422.12 255.72 C 420.63 257.68 419.02 259.54 417.21 261.21 C 413.70 257.22 412.95 250.24 408.19 247.86 Z" />
</g>
<g id="#efb64fff">
<path fill="#efb64f" opacity="1.00" d=" M 370.10 243.78 C 372.70 249.54 376.10 255.13 376.54 261.59 C 376.93 262.50 377.37 263.39 377.87 264.26 C 377.32 269.81 375.10 275.00 373.30 280.22 C 371.53 275.37 370.73 270.26 369.85 265.20 C 369.35 258.08 368.29 250.82 370.10 243.78 Z" />
</g>
<g id="#55607bff">
<path fill="#55607b" opacity="1.00" d=" M 515.27 279.37 C 540.11 276.47 563.76 263.91 578.92 243.83 C 579.43 244.13 580.46 244.75 580.97 245.05 C 564.88 267.72 538.17 282.51 510.27 283.33 C 507.06 283.23 503.94 283.12 500.77 283.23 C 485.43 282.02 469.99 278.51 456.84 270.20 C 457.43 269.85 458.61 269.13 459.20 268.78 C 470.79 273.98 482.99 278.34 495.77 279.24 C 502.17 279.93 508.90 280.93 515.27 279.37 Z" />
</g>
<g id="#f2ae33fc">
<path fill="#f2ae33" opacity="1.00" d=" M 408.19 247.86 C 412.95 250.24 413.70 257.22 417.21 261.21 C 416.88 261.58 416.23 262.32 415.90 262.69 C 400.67 281.17 386.40 300.43 371.26 318.98 L 370.78 318.26 C 371.30 313.22 372.41 308.26 372.73 303.19 C 376.98 297.45 380.78 291.36 384.26 285.12 C 393.22 273.39 400.30 260.32 408.19 247.86 Z" />
</g>
<g id="#e9d6c1ff">
<path fill="#e9d6c1" opacity="1.00" d=" M 325.18 252.88 C 330.92 262.96 338.64 271.83 343.86 282.19 C 337.08 274.55 330.81 266.45 324.76 258.22 C 323.53 258.04 322.29 257.92 321.05 257.88 C 322.38 256.17 323.85 254.59 325.18 252.88 Z" />
</g>
<g id="#e1d5c8ff">
<path fill="#e1d5c8" opacity="1.00" d=" M 417.21 261.21 C 419.02 259.54 420.63 257.68 422.12 255.72 C 428.08 263.15 435.23 269.45 442.98 275.02 C 460.12 288.07 481.56 293.77 502.77 295.21 C 505.83 295.62 509.25 296.71 512.23 295.24 C 512.61 295.11 513.39 294.85 513.77 294.72 C 515.60 294.90 517.43 295.12 519.27 295.32 C 501.15 301.25 481.29 301.07 463.00 295.97 C 448.56 291.90 436.51 282.36 425.78 272.22 C 422.00 269.57 421.00 263.10 415.90 262.69 C 416.23 262.32 416.88 261.58 417.21 261.21 Z" />
</g>
<g id="#bfd2d5ff">
<path fill="#bfd2d5" opacity="1.00" d=" M 232.77 257.26 C 239.26 256.85 245.77 256.99 252.27 257.37 C 245.90 258.91 239.18 257.94 232.77 257.26 Z" />
</g>
<g id="#bed3d7ff">
<path fill="#bed3d7" opacity="1.00" d=" M 492.77 257.26 C 499.26 256.85 505.76 256.99 512.27 257.37 C 505.90 258.93 499.17 257.93 492.77 257.26 Z" />
</g>
<g id="#dcd2c7ff">
<path fill="#dcd2c7" opacity="1.00" d=" M 275.74 288.63 C 292.52 282.16 307.61 271.86 320.12 259.02 C 319.72 261.07 318.79 262.94 317.98 264.84 C 315.65 266.93 313.00 268.92 311.79 271.91 C 308.56 274.97 304.93 277.58 301.91 280.87 C 298.81 282.78 295.33 284.22 292.75 286.87 C 280.70 292.99 267.75 297.17 254.23 298.28 C 249.07 298.12 243.91 297.88 238.76 298.23 C 235.09 297.62 231.46 296.71 227.77 296.25 C 233.90 295.80 240.21 296.64 246.27 295.37 C 256.14 293.37 266.32 292.36 275.74 288.63 Z" />
</g>
<g id="#8992a7ff">
<path fill="#8992a7" opacity="1.00" d=" M 444.67 261.15 C 444.98 260.85 445.59 260.25 445.89 259.95 C 447.57 261.34 449.34 262.62 451.13 263.87 C 450.31 263.94 448.67 264.09 447.85 264.16 C 446.70 263.25 445.69 262.18 444.67 261.15 Z" />
</g>
<g id="#8d99acff">
<path fill="#8d99ac" opacity="1.00" d=" M 180.82 263.12 C 191.86 269.10 203.29 274.81 215.68 277.37 C 234.50 282.62 254.76 280.08 272.94 273.52 C 273.30 274.81 273.56 276.12 273.97 277.40 C 264.19 281.32 253.74 283.41 243.27 284.38 C 239.43 284.11 235.60 283.91 231.77 284.26 C 213.36 282.08 194.69 275.79 180.82 263.12 Z" />
</g>
<g id="#68738eff">
<path fill="#68738e" opacity="1.00" d=" M 447.85 264.16 C 448.67 264.09 450.31 263.94 451.13 263.87 C 453.79 265.55 456.44 267.25 459.20 268.78 C 458.61 269.13 457.43 269.85 456.84 270.20 C 453.82 268.21 450.70 266.35 447.85 264.16 Z" />
</g>
<g id="#0f0e0d11">
<path fill="#0f0e0d" opacity="0.07" d=" M 311.79 271.91 C 313.00 268.92 315.65 266.93 317.98 264.84 C 317.62 268.25 314.19 269.98 311.79 271.91 Z" />
</g>
<g id="#aeb1b8ff">
<path fill="#aeb1b8" opacity="1.00" d=" M 495.77 279.24 C 502.26 278.86 508.76 278.99 515.27 279.37 C 508.90 280.93 502.17 279.93 495.77 279.24 Z" />
</g>
<g id="#0c0b0b0e">
<path fill="#0c0b0b" opacity="0.05" d=" M 292.75 286.87 C 295.33 284.22 298.81 282.78 301.91 280.87 C 299.52 283.61 296.54 286.47 292.75 286.87 Z" />
</g>
<g id="#253355ff">
<path fill="#253355" opacity="1.00" d=" M 500.77 283.23 C 503.94 283.12 507.06 283.23 510.27 283.33 C 507.20 284.50 503.87 283.77 500.77 283.23 Z" />
</g>
<g id="#283656ff">
<path fill="#283656" opacity="1.00" d=" M 231.77 284.26 C 235.60 283.91 239.43 284.11 243.27 284.38 C 239.46 285.09 235.55 285.11 231.77 284.26 Z" />
</g>
<g id="#858692ff">
<path fill="#858692" opacity="1.00" d=" M 513.77 294.72 C 516.45 293.58 519.36 294.21 522.23 294.19 C 521.25 294.59 520.26 294.97 519.27 295.32 C 517.43 295.12 515.60 294.90 513.77 294.72 Z" />
</g>
<g id="#989aa2ff">
<path fill="#989aa2" opacity="1.00" d=" M 223.77 295.21 C 231.27 294.96 238.77 294.89 246.27 295.37 C 240.21 296.64 233.90 295.80 227.77 296.25 C 226.40 296.02 225.06 295.70 223.77 295.21 Z" />
</g>
<g id="#c9c4c1ff">
<path fill="#c9c4c1" opacity="1.00" d=" M 502.77 295.21 C 505.93 295.13 509.03 295.19 512.23 295.24 C 509.25 296.71 505.83 295.62 502.77 295.21 Z" />
</g>
<g id="#0d0c0b0f">
<path fill="#0d0c0b" opacity="0.06" d=" M 238.76 298.23 C 243.91 297.88 249.07 298.12 254.23 298.28 C 249.12 299.16 243.85 299.36 238.76 298.23 Z" />
</g>
<g id="#0a0f218a">
<path fill="#0a0f21" opacity="0.54" d=" M 258.00 316.02 C 264.32 316.01 270.65 315.84 276.98 316.05 L 277.00 317.00 C 270.66 316.99 264.34 317.00 258.01 317.00 L 258.00 316.02 Z" />
</g>
<g id="#131d3efe">
<path fill="#131d3e" opacity="1.00" d=" M 256.99 319.00 C 257.24 318.50 257.76 317.50 258.01 317.00 C 264.34 317.00 270.66 316.99 277.00 317.00 C 277.25 317.25 277.75 317.76 278.00 318.01 C 277.99 322.99 277.99 328.00 278.00 332.99 C 277.75 333.25 277.25 333.75 276.99 334.00 C 270.66 333.99 264.33 333.99 258.00 334.00 C 257.75 333.75 257.25 333.24 257.00 332.99 C 256.99 328.31 257.02 323.66 256.99 319.00 Z" />
<path fill="#131d3e" opacity="1.00" d=" M 172.98 356.00 C 174.52 353.23 170.35 345.80 175.04 345.01 C 181.36 344.96 187.67 345.01 194.00 345.00 C 194.25 345.25 194.75 345.76 195.00 346.01 C 195.53 359.07 193.99 372.33 195.57 385.32 C 196.03 388.32 197.18 391.37 199.71 393.27 C 205.26 398.55 217.57 395.73 218.31 387.28 C 219.81 373.93 218.65 360.44 219.02 347.03 C 219.13 345.79 219.80 345.12 221.04 345.02 C 227.36 344.96 233.67 345.01 240.00 345.00 C 240.25 345.25 240.75 345.76 241.00 346.01 C 240.97 367.32 241.04 388.64 240.98 409.96 C 240.20 414.64 232.73 410.48 230.00 412.05 C 225.40 413.12 217.65 411.98 219.86 404.97 C 215.15 409.74 208.57 412.85 201.85 413.05 C 200.17 413.05 196.82 413.05 195.14 413.05 C 183.74 412.45 174.79 402.33 173.53 391.35 C 172.36 379.62 173.29 367.77 172.98 356.00 Z" />
</g>
<g id="#4d99afb7">
<path fill="#4d99af" opacity="0.72" d=" M 289.02 317.02 C 298.27 317.10 307.55 316.69 316.80 317.14 C 317.86 320.41 319.49 323.63 319.86 327.06 C 319.84 327.60 319.80 328.68 319.78 329.22 C 318.22 325.62 317.29 321.79 315.76 318.18 C 314.56 318.01 313.35 317.93 312.14 317.93 C 304.41 317.92 296.68 318.04 288.96 318.00 L 289.02 317.02 Z" />
</g>
<g id="#4a6c87a0">
<path fill="#4a6c87" opacity="0.63" d=" M 336.97 317.04 C 346.32 317.01 355.68 316.85 365.03 317.06 C 364.99 317.52 364.90 318.42 364.85 318.87 C 363.00 318.02 360.94 317.95 358.95 317.96 C 355.89 317.90 352.90 318.01 349.87 318.03 C 345.87 317.96 341.88 317.97 337.90 318.06 C 339.53 323.79 341.64 329.39 343.61 335.02 C 345.13 338.65 346.15 342.47 347.79 346.05 C 348.51 349.04 349.52 351.96 350.16 354.98 L 349.23 354.82 C 345.91 345.48 342.90 336.05 339.36 326.80 C 338.53 323.55 336.71 320.48 336.97 317.04 Z" />
</g>
<g id="#485b7186">
<path fill="#485b71" opacity="0.53" d=" M 365.03 317.06 C 366.81 318.94 367.81 323.22 367.77 326.22 C 366.67 324.46 365.43 322.77 364.65 320.84 C 364.70 320.35 364.80 319.36 364.85 318.87 C 364.90 318.42 364.99 317.52 365.03 317.06 Z" />
</g>
<g id="#0c1328a7">
<path fill="#0c1328" opacity="0.65" d=" M 278.00 318.01 L 278.98 318.00 C 278.98 321.75 278.98 329.25 278.98 333.00 L 278.00 332.99 C 277.99 328.00 277.99 322.99 278.00 318.01 Z" />
</g>
<g id="#03bbeefe">
<path fill="#03bbee" opacity="1.00" d=" M 288.96 318.00 C 296.68 318.04 304.41 317.92 312.14 317.93 C 314.90 324.29 309.09 329.50 309.73 335.88 C 307.19 341.31 307.27 347.48 304.78 352.92 C 303.39 352.93 302.04 352.61 300.70 352.34 C 298.13 345.17 295.86 337.91 293.32 330.73 C 292.53 326.58 291.26 322.49 289.30 318.74 L 288.96 318.00 Z" />
</g>
<g id="#04a9e2fe">
<path fill="#04a9e2" opacity="1.00" d=" M 312.14 317.93 C 313.35 317.93 314.56 318.01 315.76 318.18 C 317.29 321.79 318.22 325.62 319.78 329.22 C 320.15 330.37 320.54 331.52 320.87 332.69 C 320.85 347.60 315.68 361.57 312.76 376.01 C 311.07 375.43 309.48 374.60 307.78 374.07 C 307.22 372.99 306.71 371.89 306.19 370.81 C 304.86 367.12 303.68 363.39 302.27 359.74 C 301.81 357.26 301.22 354.81 300.70 352.34 C 302.04 352.61 303.39 352.93 304.78 352.92 C 307.27 347.48 307.19 341.31 309.73 335.88 C 309.09 329.50 314.90 324.29 312.14 317.93 Z" />
</g>
<g id="#066bb9fe">
<path fill="#066bb9" opacity="1.00" d=" M 337.90 318.06 C 341.88 317.97 345.87 317.96 349.87 318.03 C 350.78 319.53 353.24 320.64 352.56 322.67 C 351.27 327.14 351.06 332.05 349.24 336.29 C 347.23 339.04 345.92 331.52 343.61 335.02 C 341.64 329.39 339.53 323.79 337.90 318.06 Z" />
</g>
<g id="#0560b3ff">
<path fill="#0560b3" opacity="1.00" d=" M 349.87 318.03 C 352.90 318.01 355.89 317.90 358.95 317.96 C 359.65 318.98 360.47 319.94 361.01 321.08 C 359.09 331.50 356.28 341.78 353.83 352.08 C 351.51 350.38 350.08 347.78 347.79 346.05 C 346.15 342.47 345.13 338.65 343.61 335.02 C 345.92 331.52 347.23 339.04 349.24 336.29 C 351.06 332.05 351.27 327.14 352.56 322.67 C 353.24 320.64 350.78 319.53 349.87 318.03 Z" />
</g>
<g id="#0758acfe">
<path fill="#0758ac" opacity="1.00" d=" M 358.95 317.96 C 360.94 317.95 363.00 318.02 364.85 318.87 C 364.80 319.36 364.70 320.35 364.65 320.84 C 363.86 324.86 364.38 328.92 364.79 332.94 C 362.98 343.51 359.46 353.70 357.64 364.26 C 355.84 362.69 355.79 359.21 353.12 358.93 C 353.01 359.75 352.78 361.39 352.67 362.22 C 351.79 359.81 350.97 357.40 350.16 354.98 C 349.52 351.96 348.51 349.04 347.79 346.05 C 350.08 347.78 351.51 350.38 353.83 352.08 C 356.28 341.78 359.09 331.50 361.01 321.08 C 360.47 319.94 359.65 318.98 358.95 317.96 Z" />
</g>
<g id="#04070f40">
<path fill="#04070f" opacity="0.25" d=" M 113.78 319.74 C 117.25 318.98 120.74 318.97 124.23 319.71 C 120.73 319.80 117.26 320.00 113.78 319.74 Z" />
<path fill="#04070f" opacity="0.25" d=" M 24.04 384.03 C 38.01 383.87 51.98 384.08 65.96 383.99 L 66.01 384.97 C 52.00 385.03 37.99 385.02 23.99 384.99 L 24.04 384.03 Z" />
</g>
<g id="#090e1e7b">
<path fill="#090e1e" opacity="0.48" d=" M 256.05 319.03 L 256.99 319.00 C 257.02 323.66 256.99 328.31 257.00 332.99 L 256.02 333.00 C 255.99 328.33 255.85 323.68 256.05 319.03 Z" />
</g>
<g id="#4e828e91">
<path fill="#4e828e" opacity="0.57" d=" M 289.30 318.74 C 291.26 322.49 292.53 326.58 293.32 330.73 L 292.32 330.91 C 291.62 326.78 288.81 322.98 289.30 318.74 Z" />
</g>
<g id="#0509134f">
<path fill="#050913" opacity="0.31" d=" M 616.99 319.04 C 622.97 319.01 628.99 318.82 634.99 319.05 L 634.97 320.02 C 628.98 319.98 623.01 319.96 617.04 320.01 L 616.99 319.04 Z" />
</g>
<g id="#131d3efd">
<path fill="#131d3e" opacity="1.00" d=" M 88.16 331.16 C 94.77 324.11 104.40 320.88 113.78 319.74 C 117.26 320.00 120.73 319.80 124.23 319.71 C 135.55 320.64 147.13 325.70 153.68 335.31 C 157.05 341.23 159.08 347.90 159.37 354.73 C 158.89 362.54 158.89 370.39 159.26 378.22 C 158.85 387.21 156.17 396.16 150.05 402.96 C 153.46 407.91 157.23 412.66 160.04 418.00 C 159.53 418.81 158.95 419.57 158.30 420.28 C 151.45 420.04 144.57 419.72 137.72 420.24 C 135.30 417.63 133.23 414.71 130.76 412.16 C 128.20 411.72 125.76 412.93 123.28 413.35 C 120.10 413.23 116.94 413.12 113.77 413.25 C 104.21 412.46 94.73 408.98 87.72 402.28 C 83.54 397.05 80.84 390.83 79.61 384.28 C 79.71 380.75 80.66 377.09 79.22 373.73 C 78.88 369.24 79.09 364.71 79.18 360.22 C 79.88 356.75 80.12 353.26 79.75 349.76 C 80.59 342.89 83.63 336.38 88.16 331.16 M 116.14 338.94 C 109.41 338.96 104.28 345.59 103.98 351.98 L 103.04 352.03 C 102.87 361.34 103.03 370.67 103.01 380.00 L 103.97 380.00 C 103.60 386.92 108.82 394.02 116.14 394.06 C 116.97 395.84 122.03 395.85 122.86 394.05 C 131.95 392.73 136.23 382.34 135.02 374.00 L 135.99 374.00 C 135.99 370.25 135.99 362.75 135.99 359.00 L 135.02 359.00 C 135.86 350.86 132.16 339.99 122.86 338.96 C 122.04 337.14 116.97 337.15 116.14 338.94 Z" />
<path fill="#131d3e" opacity="1.00" d=" M 615.02 322.04 C 615.12 320.80 615.79 320.12 617.04 320.01 C 623.01 319.96 628.98 319.98 634.97 320.02 C 639.64 320.80 635.45 328.24 637.02 331.00 C 637.06 337.33 636.86 343.69 637.05 350.04 C 643.72 344.47 652.70 341.50 661.37 343.44 C 673.61 345.01 682.99 356.92 683.01 369.00 C 682.98 371.75 682.87 374.60 683.59 377.30 C 683.61 377.66 683.65 378.38 683.68 378.73 C 683.31 381.44 683.03 384.24 683.00 387.00 C 683.02 399.62 673.21 412.63 660.01 413.02 C 657.32 412.99 654.65 412.99 651.99 413.02 C 645.74 413.14 640.31 409.23 636.19 404.85 C 637.60 408.03 635.64 410.06 633.76 411.83 C 628.49 412.05 623.24 412.12 617.99 412.01 C 616.68 412.19 614.90 411.51 615.01 409.97 C 614.99 380.65 614.98 351.34 615.02 322.04 M 644.30 361.27 C 638.62 363.52 636.44 370.37 636.96 375.99 C 636.49 382.63 637.10 392.86 644.97 395.01 L 645.03 395.95 C 647.44 395.54 652.08 397.22 653.03 395.01 C 657.95 394.36 660.07 388.34 660.81 383.92 C 660.82 376.91 662.35 366.97 655.70 362.33 C 652.45 359.90 647.95 361.36 644.30 361.27 Z" />
</g>
<g id="#0850a7fe">
<path fill="#0850a7" opacity="1.00" d=" M 364.79 332.94 C 364.38 328.92 363.86 324.86 364.65 320.84 C 365.43 322.77 366.67 324.46 367.77 326.22 C 368.24 328.10 368.76 329.96 369.26 331.84 C 367.53 330.56 364.02 326.42 367.54 334.59 C 368.65 340.53 369.87 346.76 367.57 352.62 C 365.41 360.39 364.25 368.43 361.76 376.12 C 359.57 374.90 359.92 370.93 357.10 371.04 C 356.98 371.58 356.74 372.66 356.62 373.20 C 355.68 370.32 354.71 367.44 353.27 364.77 C 353.12 364.13 352.82 362.85 352.67 362.22 C 352.78 361.39 353.01 359.75 353.12 358.93 C 355.79 359.21 355.84 362.69 357.64 364.26 C 359.46 353.70 362.98 343.51 364.79 332.94 Z" />
</g>
<g id="#131d3eff">
<path fill="#131d3e" opacity="1.00" d=" M 462.03 321.03 C 468.67 320.92 475.31 320.93 481.97 321.05 C 483.20 321.12 483.87 321.78 483.99 323.04 C 484.00 343.36 484.03 363.68 483.95 384.01 C 485.23 386.06 482.76 390.21 484.75 392.24 C 498.01 394.05 512.32 392.48 525.99 393.00 L 526.96 393.02 C 526.97 393.52 527.00 394.51 527.02 395.00 C 526.97 399.97 527.03 404.97 526.98 409.96 C 526.20 414.65 518.72 410.45 516.00 412.02 C 498.01 411.90 480.01 412.14 462.02 411.94 L 462.00 410.98 C 462.00 381.32 462.00 351.66 462.00 322.01 L 462.03 321.03 Z" />
<path fill="#131d3e" opacity="1.00" d=" M 256.99 347.00 C 257.24 346.50 257.76 345.50 258.01 345.00 C 264.34 345.00 270.66 344.99 277.00 345.00 C 277.25 345.25 277.75 345.76 278.00 346.01 C 277.97 367.32 278.04 388.64 277.98 409.96 C 277.20 414.64 269.73 410.46 267.00 412.05 C 264.71 410.54 257.83 414.21 257.01 409.97 C 256.96 388.97 257.03 367.98 256.99 347.00 Z" />
</g>
<g id="#121c3bf3">
<path fill="#121c3b" opacity="0.95" d=" M 461.05 322.02 L 462.00 322.01 C 462.00 351.66 462.00 381.32 462.00 410.98 L 461.02 411.00 C 461.01 381.34 460.93 351.68 461.05 322.02 Z" />
</g>
<g id="#070a1760">
<path fill="#070a17" opacity="0.38" d=" M 614.05 322.01 L 615.02 322.04 C 614.98 351.34 614.99 380.65 615.01 409.97 L 614.03 410.01 C 613.99 380.67 613.94 351.34 614.05 322.01 Z" />
</g>
<g id="#0f1732d0">
<path fill="#0f1732" opacity="0.82" d=" M 483.99 323.04 L 484.97 322.99 C 484.83 346.07 485.39 369.18 484.75 392.24 C 482.76 390.21 485.23 386.06 483.95 384.01 C 484.03 363.68 484.00 343.36 483.99 323.04 Z" />
</g>
<g id="#4a535e6a">
<path fill="#4a535e" opacity="0.42" d=" M 367.77 326.22 L 368.71 326.17 C 369.85 330.52 372.83 334.61 372.81 339.16 L 371.89 339.02 C 371.04 336.61 370.25 334.18 369.26 331.84 C 368.76 329.96 368.24 328.10 367.77 326.22 Z" />
</g>
<g id="#526d787e">
<path fill="#526d78" opacity="0.49" d=" M 319.86 327.06 L 320.79 327.09 C 322.39 334.13 325.35 340.83 327.44 347.76 C 329.06 350.02 329.13 352.78 328.84 355.40 C 327.94 353.20 327.11 350.98 326.31 348.76 C 324.83 343.30 322.82 338.00 320.87 332.69 C 320.54 331.52 320.15 330.37 319.78 329.22 C 319.80 328.68 319.84 327.60 319.86 327.06 Z" />
</g>
<g id="#0847a1fe">
<path fill="#0847a1" opacity="1.00" d=" M 367.54 334.59 C 364.02 326.42 367.53 330.56 369.26 331.84 C 370.25 334.18 371.04 336.61 371.89 339.02 C 372.17 340.58 372.51 342.15 372.81 343.72 C 372.43 346.15 371.87 348.72 372.85 351.09 C 374.72 357.40 374.34 364.33 372.46 370.59 C 368.96 376.61 369.56 383.94 366.80 390.26 C 365.01 388.30 363.72 385.97 362.14 383.86 C 361.97 385.31 361.81 386.78 361.68 388.25 C 360.21 383.85 358.66 379.47 356.97 375.17 C 356.88 374.68 356.71 373.69 356.62 373.20 C 356.74 372.66 356.98 371.58 357.10 371.04 C 359.92 370.93 359.57 374.90 361.76 376.12 C 364.25 368.43 365.41 360.39 367.57 352.62 C 369.87 346.76 368.65 340.53 367.54 334.59 Z" />
</g>
<g id="#537e898e">
<path fill="#537e89" opacity="0.56" d=" M 293.32 330.73 C 295.86 337.91 298.13 345.17 300.70 352.34 C 301.22 354.81 301.81 357.26 302.27 359.74 L 301.23 359.94 C 299.64 351.44 296.15 343.54 293.57 335.34 C 292.87 333.88 293.03 332.26 293.32 330.73 Z" />
</g>
<g id="#049bd9fe">
<path fill="#049bd9" opacity="1.00" d=" M 312.76 376.01 C 315.68 361.57 320.85 347.60 320.87 332.69 C 322.82 338.00 324.83 343.30 326.31 348.76 C 325.63 356.39 328.50 364.22 325.50 371.60 C 323.17 380.07 321.43 388.68 318.87 397.08 C 316.13 397.06 315.61 393.68 313.94 392.05 C 313.30 390.99 312.73 389.90 312.15 388.82 C 311.49 386.78 310.94 384.71 310.28 382.67 C 309.45 379.80 308.46 376.98 307.78 374.07 C 309.48 374.60 311.07 375.43 312.76 376.01 Z" />
</g>
<g id="#0c1328a9">
<path fill="#0c1328" opacity="0.66" d=" M 258.00 334.00 C 264.33 333.99 270.66 333.99 276.99 334.00 L 277.00 334.98 C 270.67 334.98 264.34 335.16 258.02 334.95 L 258.00 334.00 Z" />
</g>
<g id="#0a102393">
<path fill="#0a1023" opacity="0.58" d=" M 116.14 338.94 C 116.97 337.15 122.04 337.14 122.86 338.96 C 121.18 338.95 117.82 338.95 116.14 338.94 Z" />
</g>
<g id="#505d7b9d">
<path fill="#505d7b" opacity="0.62" d=" M 371.89 339.02 L 372.81 339.16 C 380.06 358.77 386.62 378.63 393.61 398.32 C 394.14 400.98 396.35 403.20 395.93 406.03 L 394.96 405.98 C 391.44 396.62 388.51 387.05 384.81 377.76 C 383.55 371.97 380.83 366.61 379.08 360.98 C 377.08 355.19 375.00 349.43 372.81 343.72 C 372.51 342.15 372.17 340.58 371.89 339.02 Z" />
</g>
<g id="#131d3dfc">
<path fill="#131d3d" opacity="1.00" d=" M 18.99 345.98 C 31.90 340.51 47.83 342.24 58.83 351.16 C 64.05 356.74 67.93 364.27 68.04 372.00 C 67.99 375.58 68.02 379.22 67.96 382.82 C 67.46 383.11 66.46 383.70 65.96 383.99 C 51.98 384.08 38.01 383.87 24.04 384.03 L 23.99 384.99 C 23.51 390.64 26.53 397.49 32.66 398.46 C 38.31 400.76 41.88 394.46 46.29 392.27 C 52.78 391.87 59.28 391.82 65.78 392.14 C 67.55 393.21 67.29 395.75 66.39 397.35 C 61.75 407.28 50.44 412.23 40.02 413.02 C 37.00 412.97 34.00 412.99 30.99 413.02 C 21.77 412.93 12.44 408.48 6.94 401.04 C 1.87 394.14 0.64 385.34 0.95 377.00 C 0.18 364.30 7.25 351.32 18.99 345.98 M 27.74 359.75 C 24.84 362.58 23.76 367.03 24.00 370.99 L 24.01 371.96 C 31.33 372.12 38.65 372.01 45.97 371.97 L 46.07 370.98 C 45.32 366.02 44.25 360.03 38.85 358.19 C 35.29 355.82 30.96 357.78 27.74 359.75 Z" />
<path fill="#131d3d" opacity="1.00" d=" M 543.15 351.18 C 554.81 342.03 571.45 340.47 585.00 346.02 C 592.73 348.89 598.92 356.63 599.03 365.00 C 598.93 379.98 599.06 394.97 598.98 409.96 C 598.20 414.64 590.72 410.46 588.00 412.04 C 584.96 411.88 582.14 412.21 579.16 411.88 C 577.57 410.02 579.60 401.78 576.26 406.32 C 572.85 410.67 567.33 412.45 562.02 413.01 C 559.33 413.00 556.64 413.00 553.98 413.00 C 545.31 412.22 535.05 406.34 533.98 397.02 C 533.97 394.33 533.97 391.65 533.98 388.98 C 533.72 384.24 538.31 381.34 541.25 378.25 C 551.65 370.83 564.90 371.09 576.98 368.87 C 578.12 364.53 576.52 359.06 572.02 357.47 C 569.80 356.25 567.09 356.32 564.99 357.50 C 563.22 358.50 561.00 359.02 559.81 360.79 C 558.68 362.10 558.26 364.60 556.02 364.01 C 550.67 363.99 545.37 364.04 540.04 363.98 C 534.37 361.79 540.96 353.65 543.15 351.18 M 575.09 381.80 C 568.71 382.92 561.69 383.30 556.37 387.38 C 552.66 391.65 556.45 398.83 561.99 398.05 C 569.13 399.60 576.99 394.56 577.07 387.02 C 579.10 386.96 577.57 383.46 578.00 382.01 C 578.86 380.45 574.13 380.36 575.09 381.80 Z" />
</g>
<g id="#131d3dfb">
<path fill="#131d3d" opacity="1.00" d=" M 694.71 360.84 C 697.59 349.79 709.25 343.71 719.98 342.97 C 731.68 342.32 745.44 345.30 752.43 355.59 C 754.38 357.63 755.19 361.82 752.21 363.21 C 747.04 363.09 741.91 362.93 736.76 363.18 C 732.80 361.13 729.32 358.09 724.90 357.09 C 720.30 356.77 714.34 360.16 716.95 365.92 C 726.66 372.26 739.65 369.96 748.99 377.01 C 753.54 379.21 754.83 384.27 757.00 388.38 L 757.00 395.62 C 755.01 399.60 753.52 404.03 749.82 406.82 C 744.06 410.83 737.12 412.59 730.23 413.28 C 726.69 413.14 723.26 413.00 719.77 413.26 C 710.00 412.46 699.16 408.97 694.30 399.71 C 692.91 397.65 691.93 394.07 694.79 392.79 C 700.55 392.93 706.34 392.94 712.14 392.89 C 715.79 395.33 719.37 398.88 723.96 399.03 C 728.90 400.15 735.67 396.03 733.05 390.09 C 724.95 384.59 714.37 385.77 706.00 381.00 C 700.26 378.89 696.50 373.85 694.80 368.15 C 694.78 366.32 694.73 362.67 694.71 360.84 Z" />
</g>
<g id="#0b12259d">
<path fill="#0b1225" opacity="0.62" d=" M 174.99 344.04 C 181.31 344.00 187.65 343.83 193.98 344.05 L 194.00 345.00 C 187.67 345.01 181.36 344.96 175.04 345.01 L 174.99 344.04 Z" />
<path fill="#0b1225" opacity="0.62" d=" M 220.99 344.04 C 227.31 344.00 233.65 343.83 239.98 344.05 L 240.00 345.00 C 233.67 345.01 227.36 344.96 221.04 345.02 L 220.99 344.04 Z" />
</g>
<g id="#0b112498">
<path fill="#0b1124" opacity="0.60" d=" M 258.00 344.02 C 264.32 344.01 270.65 343.84 276.98 344.05 L 277.00 345.00 C 270.66 344.99 264.34 345.00 258.01 345.00 L 258.00 344.02 Z" />
</g>
<g id="#083c9afe">
<path fill="#083c9a" opacity="1.00" d=" M 372.85 351.09 C 371.87 348.72 372.43 346.15 372.81 343.72 C 375.00 349.43 377.08 355.19 379.08 360.98 C 378.53 360.75 377.45 360.28 376.91 360.05 C 378.19 366.40 379.92 372.81 379.38 379.32 C 376.67 388.46 375.37 397.94 372.79 407.13 C 371.46 405.40 368.12 400.34 367.61 405.19 C 365.77 399.49 363.19 394.06 361.68 388.25 C 361.81 386.78 361.97 385.31 362.14 383.86 C 363.72 385.97 365.01 388.30 366.80 390.26 C 369.56 383.94 368.96 376.61 372.46 370.59 C 374.34 364.33 374.72 357.40 372.85 351.09 Z" />
</g>
<g id="#0f1732cf">
<path fill="#0f1732" opacity="0.81" d=" M 195.00 346.01 L 195.98 346.00 C 195.60 359.08 196.80 372.29 195.57 385.32 C 193.99 372.33 195.53 359.07 195.00 346.01 Z" />
</g>
<g id="#0d142aaf">
<path fill="#0d142a" opacity="0.69" d=" M 241.00 346.01 L 241.98 346.00 C 241.97 367.33 242.09 388.66 241.94 409.99 L 240.98 409.96 C 241.04 388.64 240.97 367.32 241.00 346.01 Z" />
</g>
<g id="#0a10238f">
<path fill="#0a1023" opacity="0.56" d=" M 278.00 346.01 L 278.98 346.00 C 278.97 367.33 279.09 388.66 278.94 409.99 L 277.98 409.96 C 278.04 388.64 277.97 367.32 278.00 346.01 Z" />
</g>
<g id="#01020516">
<path fill="#010205" opacity="0.09" d=" M 218.06 347.01 L 219.02 347.03 C 218.65 360.44 219.81 373.93 218.31 387.28 C 217.75 373.87 217.97 360.43 218.06 347.01 Z" />
</g>
<g id="#070a175f">
<path fill="#070a17" opacity="0.37" d=" M 256.04 347.02 L 256.99 347.00 C 257.03 367.98 256.96 388.97 257.01 409.97 L 256.03 410.01 C 255.99 389.01 255.94 368.01 256.04 347.02 Z" />
</g>
<g id="#088fd0fc">
<path fill="#088fd0" opacity="1.00" d=" M 326.31 348.76 C 327.11 350.98 327.94 353.20 328.84 355.40 C 329.09 357.32 329.59 359.29 330.70 360.91 C 331.55 361.76 331.97 362.79 331.96 363.98 C 332.01 365.18 332.07 366.38 332.14 367.59 C 329.12 367.47 330.28 370.50 330.39 372.41 C 332.01 377.90 330.01 383.20 328.59 388.40 C 328.64 395.93 323.56 402.29 323.92 409.85 C 322.67 409.17 321.48 408.38 320.15 407.86 C 319.97 409.30 319.81 410.75 319.70 412.21 C 318.09 407.55 316.39 402.92 314.93 398.22 C 314.71 396.14 314.32 394.09 313.94 392.05 C 315.61 393.68 316.13 397.06 318.87 397.08 C 321.43 388.68 323.17 380.07 325.50 371.60 C 328.50 364.22 325.63 356.39 326.31 348.76 Z" />
</g>
<g id="#0d142bb4">
<path fill="#0d142b" opacity="0.71" d=" M 79.18 360.22 C 78.91 356.73 79.06 353.19 79.75 349.76 C 80.12 353.26 79.88 356.75 79.18 360.22 Z" />
</g>
<g id="#080c1b6f">
<path fill="#080c1b" opacity="0.44" d=" M 103.04 352.03 L 103.98 351.98 C 104.01 361.32 104.02 370.66 103.97 380.00 L 103.01 380.00 C 103.03 370.67 102.87 361.34 103.04 352.03 Z" />
</g>
<g id="#070a1761">
<path fill="#070a17" opacity="0.38" d=" M 159.37 354.73 C 160.97 362.41 159.94 370.47 159.26 378.22 C 158.89 370.39 158.89 362.54 159.37 354.73 Z" />
</g>
<g id="#4f69747c">
<path fill="#4f6974" opacity="0.49" d=" M 328.84 355.40 C 331.05 355.53 331.76 359.16 330.70 360.91 C 329.59 359.29 329.09 357.32 328.84 355.40 Z" />
</g>
<g id="#4a576470">
<path fill="#4a5764" opacity="0.44" d=" M 349.23 354.82 L 350.16 354.98 C 350.97 357.40 351.79 359.81 352.67 362.22 C 352.82 362.85 353.12 364.13 353.27 364.77 L 353.21 365.82 L 352.25 365.93 C 351.63 362.13 349.41 358.65 349.23 354.82 Z" />
</g>
<g id="#080c1b71">
<path fill="#080c1b" opacity="0.44" d=" M 564.99 357.50 C 567.09 356.32 569.80 356.25 572.02 357.47 C 569.95 358.59 567.08 358.56 564.99 357.50 Z" />
</g>
<g id="#0f1733d2">
<path fill="#0f1733" opacity="0.82" d=" M 135.02 359.00 L 135.99 359.00 C 135.99 362.75 135.99 370.25 135.99 374.00 L 135.02 374.00 C 134.94 369.00 134.99 363.99 135.02 359.00 Z" />
</g>
<g id="#4e62686c">
<path fill="#4e6268" opacity="0.42" d=" M 302.27 359.74 C 303.68 363.39 304.86 367.12 306.19 370.81 C 306.17 371.34 306.14 372.42 306.13 372.96 L 305.23 372.86 C 304.60 368.39 301.40 364.35 302.27 359.74 Z" />
</g>
<g id="#083093fe">
<path fill="#083093" opacity="1.00" d=" M 376.91 360.05 C 377.45 360.28 378.53 360.75 379.08 360.98 C 380.83 366.61 383.55 371.97 384.81 377.76 C 383.01 384.49 387.45 390.98 386.59 397.66 C 383.96 402.62 385.87 410.24 379.87 412.95 C 376.57 412.96 373.34 413.02 370.06 412.99 C 369.33 410.36 368.40 407.80 367.61 405.19 C 368.12 400.34 371.46 405.40 372.79 407.13 C 375.37 397.94 376.67 388.46 379.38 379.32 C 379.92 372.81 378.19 366.40 376.91 360.05 Z" />
</g>
<g id="#06091352">
<path fill="#060913" opacity="0.32" d=" M 694.80 368.15 C 692.64 366.39 693.06 362.93 694.71 360.84 C 694.73 362.67 694.78 366.32 694.80 368.15 Z" />
</g>
<g id="#080c1b6e">
<path fill="#080c1b" opacity="0.43" d=" M 736.76 363.18 C 741.91 362.93 747.04 363.09 752.21 363.21 C 747.46 364.61 741.58 364.34 736.76 363.18 Z" />
<path fill="#080c1b" opacity="0.43" d=" M 527.02 395.00 L 527.99 395.00 C 527.98 398.76 527.97 406.26 527.97 410.01 L 526.98 409.96 C 527.03 404.97 526.97 399.97 527.02 395.00 Z" />
</g>
<g id="#546f7f8c">
<path fill="#546f7f" opacity="0.55" d=" M 331.96 363.98 L 332.77 364.17 C 336.25 375.18 339.50 386.37 343.93 397.05 C 343.87 397.86 343.74 399.46 343.67 400.27 C 340.99 394.21 339.19 387.84 336.93 381.63 C 335.56 376.87 333.95 372.19 332.14 367.59 C 332.07 366.38 332.01 365.18 331.96 363.98 Z" />
</g>
<g id="#05091350">
<path fill="#050913" opacity="0.31" d=" M 540.04 363.98 C 545.37 364.04 550.67 363.99 556.02 364.01 L 555.99 364.98 C 550.65 365.07 545.32 365.06 540.00 364.96 L 540.04 363.98 Z" />
</g>
<g id="#52667e95">
<path fill="#52667e" opacity="0.58" d=" M 353.27 364.77 C 354.71 367.44 355.68 370.32 356.62 373.20 C 356.71 373.69 356.88 374.68 356.97 375.17 L 356.19 374.73 C 354.42 372.22 353.56 368.85 353.21 365.82 L 353.27 364.77 Z" />
</g>
<g id="#0e152dbc">
<path fill="#0e152d" opacity="0.74" d=" M 599.03 365.00 L 599.99 365.00 C 600.00 380.00 600.04 395.01 599.96 410.01 L 598.98 409.96 C 599.06 394.97 598.93 379.98 599.03 365.00 Z" />
</g>
<g id="#0484cafe">
<path fill="#0484ca" opacity="1.00" d=" M 330.39 372.41 C 330.28 370.50 329.12 367.47 332.14 367.59 C 333.95 372.19 335.56 376.87 336.93 381.63 C 334.93 384.38 337.36 387.76 337.38 390.62 C 339.33 397.12 336.80 403.43 335.70 409.74 C 334.61 411.02 333.21 411.97 331.87 412.95 C 327.87 412.99 323.88 413.04 319.90 413.08 L 319.70 412.21 C 319.81 410.75 319.97 409.30 320.15 407.86 C 321.48 408.38 322.67 409.17 323.92 409.85 C 323.56 402.29 328.64 395.93 328.59 388.40 C 330.01 383.20 332.01 377.90 330.39 372.41 Z" />
</g>
<g id="#0c1328a8">
<path fill="#0c1328" opacity="0.66" d=" M 683.01 369.00 C 685.26 369.92 683.59 374.87 683.59 377.30 C 682.87 374.60 682.98 371.75 683.01 369.00 Z" />
<path fill="#0c1328" opacity="0.66" d=" M 575.09 381.80 C 574.13 380.36 578.86 380.45 578.00 382.01 C 577.57 383.46 579.10 386.96 577.07 387.02 C 576.66 385.16 578.05 381.64 575.09 381.80 Z" />
</g>
<g id="#0d142ab1">
<path fill="#0d142a" opacity="0.69" d=" M 24.00 370.99 C 31.36 371.00 38.72 371.00 46.07 370.98 L 45.97 371.97 C 38.65 372.01 31.33 372.12 24.01 371.96 L 24.00 370.99 Z" />
</g>
<g id="#558597a1">
<path fill="#558597" opacity="0.63" d=" M 306.19 370.81 C 306.71 371.89 307.22 372.99 307.78 374.07 C 308.46 376.98 309.45 379.80 310.28 382.67 L 309.32 382.93 C 308.11 379.68 306.54 376.41 306.13 372.96 C 306.14 372.42 306.17 371.34 306.19 370.81 Z" />
</g>
<g id="#0b112599">
<path fill="#0b1125" opacity="0.60" d=" M 68.04 372.00 L 69.00 372.00 C 68.99 374.76 68.96 380.27 68.94 383.03 L 67.96 382.82 C 68.02 379.22 67.99 375.58 68.04 372.00 Z" />
</g>
<g id="#0c1329ac">
<path fill="#0c1329" opacity="0.67" d=" M 79.22 373.73 C 80.66 377.09 79.71 380.75 79.61 384.28 C 78.58 380.86 79.16 377.21 79.22 373.73 Z" />
</g>
<g id="#505c6e81">
<path fill="#505c6e" opacity="0.51" d=" M 356.19 374.73 L 356.97 375.17 C 358.66 379.47 360.21 383.85 361.68 388.25 C 363.19 394.06 365.77 399.49 367.61 405.19 C 368.40 407.80 369.33 410.36 370.06 412.99 L 370.13 413.95 L 369.26 413.77 C 363.97 401.83 361.20 388.93 356.08 376.92 C 356.11 376.37 356.16 375.28 356.19 374.73 Z" />
</g>
<g id="#092289fe">
<path fill="#092289" opacity="1.00" d=" M 386.59 397.66 C 387.45 390.98 383.01 384.49 384.81 377.76 C 388.51 387.05 391.44 396.62 394.96 405.98 C 395.62 408.31 396.46 410.59 397.04 412.95 C 391.31 413.06 385.59 412.99 379.87 412.95 C 385.87 410.24 383.96 402.62 386.59 397.66 Z" />
</g>
<g id="#0d132aaf">
<path fill="#0d132a" opacity="0.69" d=" M 683.00 387.00 C 683.03 384.24 683.31 381.44 683.68 378.73 C 683.53 381.18 685.28 386.07 683.00 387.00 Z" />
</g>
<g id="#0977c0fb">
<path fill="#0977c0" opacity="1.00" d=" M 337.38 390.62 C 337.36 387.76 334.93 384.38 336.93 381.63 C 339.19 387.84 340.99 394.21 343.67 400.27 C 344.33 404.62 346.49 408.59 347.03 412.97 C 341.96 412.97 336.92 413.00 331.87 412.95 C 333.21 411.97 334.61 411.02 335.70 409.74 C 336.80 403.43 339.33 397.12 337.38 390.62 Z" />
</g>
<g id="#506f7c83">
<path fill="#506f7c" opacity="0.51" d=" M 309.32 382.93 L 310.28 382.67 C 310.94 384.71 311.49 386.78 312.15 388.82 C 312.13 389.36 312.09 390.43 312.07 390.97 C 310.25 389.55 309.54 385.49 309.32 382.93 Z" />
</g>
<g id="#50879fad">
<path fill="#50879f" opacity="0.68" d=" M 312.15 388.82 C 312.73 389.90 313.30 390.99 313.94 392.05 C 314.32 394.09 314.71 396.14 314.93 398.22 L 314.26 397.64 C 313.25 395.53 311.67 393.44 312.07 390.97 C 312.09 390.43 312.13 389.36 312.15 388.82 Z" />
</g>
<g id="#090f1f83">
<path fill="#090f1f" opacity="0.51" d=" M 533.04 389.03 L 533.98 388.98 C 533.97 391.65 533.97 394.33 533.98 397.02 C 531.78 396.07 533.46 391.43 533.04 389.03 Z" />
</g>
<g id="#0b12269e">
<path fill="#0b1226" opacity="0.62" d=" M 484.75 392.24 C 498.49 391.74 512.25 392.06 526.00 392.02 L 525.99 393.00 C 512.32 392.48 498.01 394.05 484.75 392.24 Z" />
</g>
<g id="#04070e3d">
<path fill="#04070e" opacity="0.24" d=" M 694.79 392.79 C 699.94 390.52 706.83 392.11 712.14 392.89 C 706.34 392.94 700.55 392.93 694.79 392.79 Z" />
</g>
<g id="#0a102391">
<path fill="#0a1023" opacity="0.57" d=" M 116.14 394.06 C 117.82 394.05 121.18 394.05 122.86 394.05 C 122.03 395.85 116.97 395.84 116.14 394.06 Z" />
</g>
<g id="#06091455">
<path fill="#060914" opacity="0.33" d=" M 644.97 395.01 C 647.64 395.00 650.32 395.00 653.03 395.01 C 652.08 397.22 647.44 395.54 645.03 395.95 L 644.97 395.01 Z" />
</g>
<g id="#4f636d74">
<path fill="#4f636d" opacity="0.45" d=" M 314.26 397.64 L 314.93 398.22 C 316.39 402.92 318.09 407.55 319.70 412.21 L 319.90 413.08 L 320.08 414.02 C 316.61 410.15 314.42 403.23 314.26 397.64 Z" />
</g>
<g id="#51677786">
<path fill="#516777" opacity="0.53" d=" M 343.67 400.27 L 344.67 400.09 C 345.79 404.77 348.25 409.11 348.07 414.05 L 347.18 413.92 L 347.03 412.97 C 346.49 408.59 344.33 404.62 343.67 400.27 Z" />
</g>
<g id="#46507aab">
<path fill="#46507a" opacity="0.67" d=" M 394.96 405.98 L 395.93 406.03 C 398.74 406.45 396.42 412.70 398.02 413.95 C 388.72 413.99 379.42 414.13 370.13 413.95 L 370.06 412.99 C 373.34 413.02 376.57 412.96 379.87 412.95 C 385.59 412.99 391.31 413.06 397.04 412.95 C 396.46 410.59 395.62 408.31 394.96 405.98 Z" />
</g>
<g id="#04070f3e">
<path fill="#04070f" opacity="0.24" d=" M 30.99 413.02 C 34.00 412.99 37.00 412.97 40.02 413.02 C 39.88 416.23 33.46 413.25 31.03 413.96 L 30.99 413.02 Z" />
<path fill="#04070f" opacity="0.24" d=" M 719.77 413.26 C 723.26 413.00 726.69 413.14 730.23 413.28 C 726.72 413.98 723.24 413.97 719.77 413.26 Z" />
</g>
<g id="#04070f41">
<path fill="#04070f" opacity="0.25" d=" M 113.77 413.25 C 116.94 413.12 120.10 413.23 123.28 413.35 C 120.20 414.50 116.89 413.75 113.77 413.25 Z" />
</g>
<g id="#04070f3f">
<path fill="#04070f" opacity="0.25" d=" M 195.14 413.05 C 196.82 413.05 200.17 413.05 201.85 413.05 C 201.04 414.85 195.96 414.85 195.14 413.05 Z" />
</g>
<g id="#3b7191ac">
<path fill="#3b7191" opacity="0.67" d=" M 319.90 413.08 C 323.88 413.04 327.87 412.99 331.87 412.95 C 336.92 413.00 341.96 412.97 347.03 412.97 L 347.18 413.92 C 338.15 414.09 329.11 414.00 320.08 414.02 L 319.90 413.08 Z" />
</g>
<g id="#04070e3c">
<path fill="#04070e" opacity="0.24" d=" M 553.98 413.00 C 556.64 413.00 559.33 413.00 562.02 413.01 C 561.08 415.22 556.43 413.53 554.03 413.95 L 553.98 413.00 Z" />
</g>
<g id="#04060e3c">
<path fill="#04060e" opacity="0.24" d=" M 651.99 413.02 C 654.65 412.99 657.32 412.99 660.01 413.02 C 659.09 415.21 654.42 413.53 652.03 413.96 L 651.99 413.02 Z" />
</g>
<g id="#090e1e7c">
<path fill="#090e1e" opacity="0.49" d=" M 137.72 420.24 C 144.57 419.72 151.45 420.04 158.30 420.28 L 157.71 421.00 L 138.32 421.00 L 137.72 420.24 Z" />
</g>
</svg>
